<?xml version="1.0" standalone="no"?>
<!DOCTYPE svg PUBLIC "-//W3C//DTD SVG 1.1//EN" "http://www.w3.org/Graphics/SVG/1.1/DTD/svg11.dtd" >
<svg xmlns="http://www.w3.org/2000/svg">
<metadata>
This is a custom SVG webfont generated by Font Squirrel.
Copyright   : Created by James with FontForge 20 httpfontforgesfnet
</metadata>
<defs>
<font id="WireWyrmLight" horiz-adv-x="963" >
<font-face units-per-em="2048" ascent="1618" descent="-430" />
<missing-glyph horiz-adv-x="823" />
<glyph unicode=" "  horiz-adv-x="823" />
<glyph unicode="&#x09;" horiz-adv-x="823" />
<glyph unicode="&#xa0;" horiz-adv-x="823" />
<glyph unicode="!" horiz-adv-x="406" d="M153 29q0 14 5 29q14 41 56 41q49 0 49 -61q0 -15 -5 -30q-14 -41 -57 -41q-48 0 -48 62zM162 1157q0 25 20 118t30 93t28 -92.5t18 -118.5q0 -56 -20 -490t-30 -434t-28 431.5t-18 492.5z" />
<glyph unicode="&#x22;" horiz-adv-x="482" d="M101 1342v22q0 16 7 37q15 46 57 46q46 0 46 -69v-6q0 -29 -6 -91t-15 -87q0 -3 -1 -7.5t-11 -12t-27 -7.5q-50 0 -50 175zM271 1342v22q0 16 7 37q15 46 57 46q46 0 46 -69v-6q0 -29 -6 -91t-15 -87q0 -3 -1 -7.5t-11 -12t-27 -7.5q-50 0 -50 175z" />
<glyph unicode="&#x30e;" horiz-adv-x="482" d="M101 1342v22q0 16 7 37q15 46 57 46q46 0 46 -69v-6q0 -29 -6 -91t-15 -87q0 -3 -1 -7.5t-11 -12t-27 -7.5q-50 0 -50 175zM271 1342v22q0 16 7 37q15 46 57 46q46 0 46 -69v-6q0 -29 -6 -91t-15 -87q0 -3 -1 -7.5t-11 -12t-27 -7.5q-50 0 -50 175z" />
<glyph unicode="&#x30b;" horiz-adv-x="482" d="M101 1342v22q0 16 7 37q15 46 57 46q46 0 46 -69v-6q0 -29 -6 -91t-15 -87q0 -3 -1 -7.5t-11 -12t-27 -7.5q-50 0 -50 175zM271 1342v22q0 16 7 37q15 46 57 46q46 0 46 -69v-6q0 -29 -6 -91t-15 -87q0 -3 -1 -7.5t-11 -12t-27 -7.5q-50 0 -50 175z" />
<glyph unicode="&#x2ba;" horiz-adv-x="482" d="M101 1342v22q0 16 7 37q15 46 57 46q46 0 46 -69v-6q0 -29 -6 -91t-15 -87q0 -3 -1 -7.5t-11 -12t-27 -7.5q-50 0 -50 175zM271 1342v22q0 16 7 37q15 46 57 46q46 0 46 -69v-6q0 -29 -6 -91t-15 -87q0 -3 -1 -7.5t-11 -12t-27 -7.5q-50 0 -50 175z" />
<glyph unicode="#" horiz-adv-x="1246" d="M96 483q0 2 1 4q7 18 32 18h216l86 391h-214q-11 0 -16.5 5.5t-2.5 12.5q7 18 33 18h208l95 437q1 8 13 13.5t24 5.5q9 0 14 -3.5t3 -11.5l-97 -441h368l95 437q1 8 13 13.5t24 5.5q9 0 14 -3.5t3 -11.5l-97 -441h219q20 0 20 -13q0 -3 -1 -5q-7 -18 -33 -18h-213 l-85 -390h221q11 0 17 -5.5t3 -12.5q-7 -18 -32 -18h-217l-102 -468q-1 -8 -13 -13.5t-24 -5.5q-9 0 -14 3.5t-3 11.5l104 472h-368l-102 -468q-1 -8 -13 -13.5t-24 -5.5q-9 0 -14 3.5t-3 11.5l103 472l-220 -1q-21 0 -21 14zM398 505l367 1l86 390h-368z" />
<glyph unicode="$" horiz-adv-x="991" d="M124 51v300q0 8 11.5 14.5t24.5 6.5q18 0 18 -13v-166q125 -107 272 -150v669q-183 77 -248 208q-33 66 -33 135v6q3 122 83.5 203.5t197.5 108.5v168q0 7 8 14t19 8h6q21 0 21 -13v-167q30 3 59 3q44 0 97 -10v165q0 7 8 14t19 8h6q21 0 21 -13v-187q99 -29 183 -95v57 q0 9 12 15.5t24 6.5q18 0 18 -13v-112q8 -8 0 -18v-170q0 -9 -12 -15.5t-24 -6.5q-18 0 -18 13v179q-80 76 -183 114v-658q214 -88 271 -246q19 -52 19 -104q0 -34 -9 -69q-22 -91 -99.5 -159t-181.5 -89v-141q0 -7 -8 -14t-19 -8h-6q-21 0 -21 13v142q-28 -3 -57 -3h-19 q-35 1 -80 8v-138q0 -7 -8 -14t-19 -8h-6q-21 0 -21 13v158q-146 35 -272 130v-72q0 -8 -11.5 -14.5t-24.5 -6.5q-18 0 -18 13zM223 1063q0 -193 227 -303v579q-97 -24 -161 -94.5t-66 -175.5v-6zM504 29q59 -12 108 -12q24 0 48 3v615q-110 41 -156 56v-662zM504 737 q27 -11 79.5 -29t76.5 -27v654q-62 15 -111 15q-30 0 -45 -2v-611zM714 28q101 23 168 95t67 179q0 198 -235 310v-584z" />
<glyph unicode="%" horiz-adv-x="1436" d="M97 1133q0 99 34.5 187.5t100 144t145.5 55.5q112 0 191 -109.5t79 -269.5q0 -154 -81.5 -269.5t-202.5 -115.5q-112 0 -189 108.5t-77 268.5zM151 1141q0 -150 72.5 -249.5t153.5 -99.5q51 0 104.5 46.5t84.5 132.5q27 75 27 162q0 149 -74.5 250t-155.5 101 q-49 0 -101.5 -46.5t-82.5 -130.5q-28 -75 -28 -166zM201 -185q0 3 2 7l940 1758q9 16 32 16h3q17 -1 17 -13q0 -4 -2 -7l-940 -1758q-9 -16 -32 -16h-3q-17 2 -17 13zM755 288q0 154 79.5 270.5t200.5 116.5q112 0 191 -109t79 -269q0 -100 -35.5 -188t-101.5 -143 t-147 -55q-112 0 -189 108.5t-77 268.5zM809 297q0 -150 72.5 -250t153.5 -100q51 0 104.5 46.5t84.5 132.5q27 75 27 162q0 149 -74.5 250t-155.5 101q-50 0 -102 -46t-82 -130q-28 -75 -28 -166z" />
<glyph unicode="&#x26;" horiz-adv-x="1210" d="M94 340q0 34 8 66t18 56t31.5 50.5t36 42.5t45 40t44.5 33.5t48 32.5t44 30q-119 165 -119 324q0 110 54 199.5t145 135.5q70 36 146 36q111 0 179.5 -70t68.5 -180q0 -90 -57 -171q-38 -55 -95.5 -99.5t-131 -89t-108.5 -72.5q-13 -10 -17 -13q33 -44 76.5 -92.5t74 -80 t87.5 -87.5t81 -80q88 -90 130 -136q87 113 110 256h-152q-11 0 -16.5 5.5t-2.5 12.5q7 18 33 18h300q20 0 20 -13q0 -10 -11 -16.5t-23 -6.5h-95q-26 -160 -134 -288q86 -96 145 -172q2 -3 2 -7q0 -8 -11.5 -15t-23.5 -7t-17 7q-58 75 -130 156q-75 -75 -176.5 -119 t-208.5 -44h-7q-103 2 -191 44t-144 125t-56 189zM148 348q0 -73 30 -135.5t79.5 -104.5t112 -65.5t129.5 -24.5h7q95 0 187.5 42.5t155.5 114.5q-85 94 -143 152q-25 25 -78.5 78t-85 84.5t-74 79t-75.5 89.5q0 1 -0.5 2t-1.5 1l-27 -18q-31 -20 -47 -31t-43 -32t-41.5 -36 t-33.5 -38.5t-28 -45.5t-16 -51t-7 -61zM304 1024q0 -86 29 -158.5t79 -143.5l1 1q42 33 114.5 77.5t124.5 84t86 88.5q51 74 51 154q0 42 -12 82.5t-36 67.5q-62 73 -160 73q-55 0 -107 -26q-74 -37 -122 -117t-48 -183z" />
<glyph unicode="'" horiz-adv-x="312" d="M101 1342v22q0 16 7 37q15 46 57 46q46 0 46 -69v-6q0 -29 -6 -91t-15 -87q0 -3 -1 -7.5t-11 -12t-27 -7.5q-50 0 -50 175zM155 1372q0 -14 1 -27q0 5 0.5 11.5t0.5 7.5q0 10 -1 17q0 -1 -0.5 -4t-0.5 -5z" />
<glyph unicode="&#x2c8;" horiz-adv-x="312" d="M101 1342v22q0 16 7 37q15 46 57 46q46 0 46 -69v-6q0 -29 -6 -91t-15 -87q0 -3 -1 -7.5t-11 -12t-27 -7.5q-50 0 -50 175zM155 1372q0 -14 1 -27q0 5 0.5 11.5t0.5 7.5q0 10 -1 17q0 -1 -0.5 -4t-0.5 -5z" />
<glyph unicode="&#x2bc;" horiz-adv-x="312" d="M101 1342v22q0 16 7 37q15 46 57 46q46 0 46 -69v-6q0 -29 -6 -91t-15 -87q0 -3 -1 -7.5t-11 -12t-27 -7.5q-50 0 -50 175zM155 1372q0 -14 1 -27q0 5 0.5 11.5t0.5 7.5q0 10 -1 17q0 -1 -0.5 -4t-0.5 -5z" />
<glyph unicode="&#x2b9;" horiz-adv-x="312" d="M101 1342v22q0 16 7 37q15 46 57 46q46 0 46 -69v-6q0 -29 -6 -91t-15 -87q0 -3 -1 -7.5t-11 -12t-27 -7.5q-50 0 -50 175zM155 1372q0 -14 1 -27q0 5 0.5 11.5t0.5 7.5q0 10 -1 17q0 -1 -0.5 -4t-0.5 -5z" />
<glyph unicode="(" horiz-adv-x="441" d="M73 697q0 536 366 892q10 10 27 10q21 0 21 -14q0 -5 -6 -11q-354 -347 -354 -868q0 -523 356 -872q3 -3 3 -8q0 -9 -10 -16t-22 -7q-11 0 -17 6q-364 354 -364 888z" />
<glyph unicode=")" horiz-adv-x="428" d="M-59 -183q0 6 6 12q354 347 354 868q0 525 -356 872q-3 3 -3 8q0 9 10.5 15.5t22.5 6.5q11 0 16 -5q364 -352 364 -888t-366 -892q-11 -11 -28 -11q-8 0 -14 4t-6 10z" />
<glyph unicode="*" horiz-adv-x="828" d="M160 526q0 10 11 16.5t23 6.5h177l-97 167q-2 3 -2 6q0 8 11.5 15t24.5 7q12 0 17 -8l89 -155l86 147q11 16 32 16h3q10 -1 14.5 -7.5t-0.5 -13.5l-100 -174h195q20 0 20 -13q0 -10 -11 -16.5t-23 -6.5h-177l97 -167q2 -3 2 -6q0 -8 -11.5 -15t-24.5 -7q-12 0 -17 8 l-89 155l-86 -147q-11 -16 -32 -16h-3q-10 1 -14.5 7.5t0.5 13.5l100 174h-195q-20 0 -20 13z" />
<glyph unicode="+" horiz-adv-x="824" d="M160 527q0 9 11 15.5t23 6.5h191v203q0 7 8 13.5t19 7.5h6q21 0 21 -13v-211h205q20 0 20 -14q0 -9 -11 -15.5t-23 -6.5h-191v-203q0 -7 -8 -13.5t-19 -7.5h-6q-21 0 -21 13v211h-205q-20 0 -20 14z" />
<glyph unicode="," horiz-adv-x="406" d="M98 -150q0 15 5.5 37.5t13 44t15.5 40.5t14 32l5 12q0 16 7 37q15 46 56 46q47 0 47 -72v-2v-1q0 -5 -4 -17q-9 -25 -28.5 -64t-52 -80t-59.5 -41q-19 0 -19 28z" />
<glyph unicode="-" horiz-adv-x="564" d="M80 526q0 3 1 5q7 18 33 18h350q20 0 20 -13q0 -3 -1 -5q-3 -7 -12.5 -12.5t-20.5 -5.5h-350q-20 0 -20 13z" />
<glyph unicode="." horiz-adv-x="406" d="M153 29q0 14 5 29q14 41 56 41q49 0 49 -61q0 -15 -5 -30q-14 -41 -57 -41q-48 0 -48 62z" />
<glyph unicode="/" horiz-adv-x="1412" d="M201 -185q0 3 2 7l940 1758q9 16 32 16h3q17 -2 17 -13q0 -3 -2 -7l-940 -1758q-9 -16 -32 -16h-3q-17 2 -17 13z" />
<glyph unicode="0" horiz-adv-x="1278" d="M154 679q0 132 35 259.5t96 227t151 160t192 60.5q123 0 229.5 -90t171.5 -252t65 -357q0 -175 -56 -330q-61 -168 -175 -271.5t-248 -103.5q-92 0 -176.5 53t-147 144.5t-100 222t-37.5 277.5zM208 687q0 -117 24.5 -223.5t66.5 -186t96 -139t114 -90t119 -30.5 q101 0 200.5 90t157.5 249q54 148 54 322q0 145 -38.5 273t-100 213.5t-137 135t-149.5 49.5q-99 0 -197 -88.5t-155 -245.5q-55 -149 -55 -329z" />
<glyph unicode="1" horiz-adv-x="886" d="M205 1185q0 9 9 15l242 178q10 7 25 7q20 0 20 -13v-1354h133q21 0 21 -14q0 -9 -11 -15.5t-23 -6.5h-300q-11 0 -16.5 5.5t-2.5 12.5q7 18 32 18h113v1307l-197 -145q-9 -8 -27 -7.5t-18 12.5z" />
<glyph unicode="2" horiz-adv-x="1195" d="M118 1155q0 5 3 9q80 101 201.5 161.5t252.5 60.5q117 0 216 -51t157.5 -141.5t58.5 -201.5q0 -65 -19 -126t-53.5 -112.5t-67.5 -89.5t-77 -79q-59 -55 -172 -147t-157 -131q-155 -137 -273 -289h737l163 201q9 10 29 12.5t22 -13.5q0 -5 -4 -9l-174 -214 q-10 -13 -30 -13h-790q-13 0 -18 8t1 15q127 169 296 318q47 42 160 133.5t169 144.5q43 40 73.5 75t63 83.5t50 105.5t17.5 118q0 157 -117.5 262t-273.5 105q-111 0 -216 -52.5t-178 -143.5q-7 -10 -28 -12.5t-22 13.5z" />
<glyph unicode="3" horiz-adv-x="1134" d="M192 195q0 12 20.5 19.5t30.5 -3.5q72 -83 172 -138.5t207 -55.5q87 0 165 42t127.5 122.5t49.5 181.5q0 148 -101.5 252.5t-239.5 113.5q-18 2 -18 13q-1 7 7.5 13.5t20.5 8.5q123 17 216.5 90.5t101.5 192.5q0 3 0.5 9.5t0.5 9.5q0 55 -21.5 102.5t-58 80.5t-84 56.5 t-99.5 34.5t-105 11q-113 0 -201 -50.5t-123 -141.5q-7 -18 -33 -18q-11 0 -16.5 5.5t-2.5 12.5q40 104 147 165.5t242 61.5q104 0 195 -33.5t152.5 -106t61.5 -171.5q0 -117 -79.5 -201t-201.5 -123q129 -36 211 -140t82 -240q0 -63 -22 -126q-42 -114 -148 -189t-239 -75 q-125 0 -231 59.5t-183 147.5q-3 3 -3 7z" />
<glyph unicode="4" horiz-adv-x="1147" d="M113 453q0 3 3 8l638 911q12 14 30 14q21 0 21 -14v-897l234 -1q20 0 20 -13q0 -10 -11 -16.5t-23 -6.5l-220 1v-421h134q11 0 16.5 -5.5t2.5 -12.5q-7 -18 -33 -18h-300q-11 0 -16.5 5.5t-2.5 12.5q7 18 33 18h112v421h-618q-8 0 -14 4t-6 10zM179 475l572 -1v817z" />
<glyph unicode="5" horiz-adv-x="1188" d="M189 225q0 8 12 15t24 7q14 0 17 -10q26 -70 87.5 -121.5t129.5 -74.5t132 -23q20 0 41 3q56 9 111 43.5t100 88.5t72.5 131.5t27.5 165.5q0 95 -33.5 180.5t-86.5 142.5t-117.5 90t-128.5 33h-6q-243 -4 -309 -199q-2 -7 -13.5 -12.5t-22.5 -5.5q-17 0 -17 14v671 q0 9 11.5 15.5t22.5 6.5h699q9 0 14.5 -4t5.5 -10v-134q0 -8 -11.5 -14.5t-24.5 -6.5q-18 0 -18 13v120h-645v-554q57 72 145.5 104t182.5 32q106 0 199 -61.5t150 -171.5t57 -241q0 -182 -106 -315t-260 -157q-24 -4 -54 -4q-119 0 -232 64t-155 175q0 1 -0.5 2t-0.5 2z " />
<glyph unicode="6" horiz-adv-x="1213" d="M217 508q0 100 7 187t25.5 178.5t48 164.5t78 139.5t112.5 111.5t154 71t200 26q11 0 16.5 -5.5t2.5 -12.5q-7 -18 -33 -18q-115 0 -205 -33.5t-150 -90t-101.5 -141t-62.5 -178t-30 -208.5q56 106 150.5 169.5t202.5 63.5q163 0 284.5 -137.5t121.5 -335.5 q0 -199 -125 -338t-294 -139q-163 0 -282 135t-119 333q0 10 -0.5 29t-0.5 29zM272 458q0 -95 32.5 -179.5t84 -140.5t115.5 -88t128 -32q96 0 187.5 70t135.5 191q29 78 29 171q0 95 -33 180.5t-85.5 142.5t-117.5 90t-129 33q-94 0 -183 -70t-133 -191q-31 -86 -31 -176 v-1z" />
<glyph unicode="7" horiz-adv-x="1170" d="M137 1230v134q0 9 11 15.5t22 6.5h859q20 0 20 -15q0 -3 -1 -5l-316 -631h296q21 0 21 -14q0 -9 -11 -15.5t-23 -6.5h-301l-351 -701q-9 -16 -31 -16h-3q-10 1 -15 6.5t-1 13.5l349 697h-319q-11 0 -16.5 5.5t-2.5 13t12.5 12.5t19.5 5h324l308 615h-797v-112 q0 -8 -11.5 -14.5t-24.5 -6.5q-18 0 -18 13z" />
<glyph unicode="8" horiz-adv-x="1065" d="M146 363q0 131 108 238.5t255 149.5q-60 19 -113 47.5t-98.5 67t-72 90.5t-26.5 110q0 104 57.5 178.5t144.5 108.5t189 34q103 0 189 -34t141.5 -106.5t55.5 -171.5q0 -111 -87.5 -194.5t-214.5 -126.5q142 -40 248 -146.5t106 -236.5q0 -167 -127.5 -278t-321.5 -111 q-182 2 -307.5 108t-125.5 273zM200 372q0 -104 55.5 -186t144 -125t192.5 -44q163 0 272.5 95.5t109.5 250.5q0 90 -61 173t-148.5 133.5t-177.5 62.5q-3 0 -10 -1t-10 -2q-86 -14 -169 -62t-140.5 -127.5t-57.5 -167.5zM253 1075q0 -59 31.5 -112.5t83.5 -91t111 -63.5 t121 -39q127 25 224.5 105t97.5 192q0 69 -29.5 125t-78.5 90t-110 52t-127 18q-88 0 -159.5 -28.5t-118 -92.5t-46.5 -155z" />
<glyph unicode="9" horiz-adv-x="1098" d="M120 909q0 199 125 338t294 139q163 0 282 -135t119 -333q0 -10 0.5 -29t0.5 -29q0 -100 -7 -187t-25.5 -178.5t-48 -164.5t-78 -139.5t-112.5 -111.5t-154 -71t-200 -26q-11 0 -16.5 5.5t-2.5 12.5q7 18 32 18q115 0 205.5 33t150.5 90t101.5 141.5t62.5 177.5t30 209 q-56 -106 -150.5 -169.5t-202.5 -63.5q-163 0 -284.5 137.5t-121.5 335.5zM174 918q0 -95 33 -180.5t85.5 -142.5t117.5 -90t129 -33q94 0 183 70t133 191q31 86 31 176v1q0 95 -32.5 179.5t-84 140.5t-115.5 88t-128 32q-96 0 -187.5 -70t-135.5 -191q-29 -78 -29 -171z " />
<glyph unicode=":" horiz-adv-x="432" d="M183 129q0 14 5 29q14 41 56 41q49 0 49 -61q0 -15 -5 -30q-14 -41 -57 -41q-48 0 -48 62zM183 695q0 14 5 29q14 41 56 41q49 0 49 -61q0 -15 -5 -30q-14 -41 -57 -41q-48 0 -48 62z" />
<glyph unicode=";" horiz-adv-x="394" d="M98 -50q0 15 5.5 37.5t13 44t15.5 40.5t14 32l5 12q0 16 7 37q15 46 56 46q47 0 47 -72v-2v-1q0 -5 -4 -17q-9 -25 -28.5 -64t-52 -80t-59.5 -41q-19 0 -19 28zM153 695q0 14 5 29q14 41 56 41q49 0 49 -61q0 -15 -5 -30q-14 -41 -57 -41q-48 0 -48 62z" />
<glyph unicode="&#x3c;" horiz-adv-x="924" d="M160 526q0 14 19 20l550 200q5 2 14 2q21 0 21 -12q0 -14 -19 -20l-502 -183l511 -186q10 -3 10 -12q0 -10 -10.5 -16t-22.5 -6q-5 0 -11 2l-550 200q-10 5 -10 11z" />
<glyph unicode="=" horiz-adv-x="924" d="M160 426q0 10 11 16.5t23 6.5h550q20 0 20 -13q0 -10 -11 -16.5t-23 -6.5h-550q-20 0 -20 13zM160 626q0 10 11 16.5t23 6.5h550q20 0 20 -13q0 -10 -11 -16.5t-23 -6.5h-550q-20 0 -20 13z" />
<glyph unicode="&#x3e;" horiz-adv-x="924" d="M160 326q0 14 19 20l502 183l-511 186q-10 3 -10 12q0 10 10.5 16t22.5 6q5 0 11 -2l550 -200q10 -3 10 -12q0 -11 -19 -19l-550 -200q-5 -2 -14 -2q-21 0 -21 12z" />
<glyph unicode="?" horiz-adv-x="933" d="M49 1155q0 3 2 7q61 97 167.5 160.5t237.5 63.5h16q142 -4 248.5 -88.5t136.5 -208.5q10 -41 10 -88q0 -54 -14 -106.5t-31 -89t-51.5 -82.5t-54.5 -68t-60 -65q-41 -43 -63 -67.5t-49 -65t-40 -77.5q-16 -48 -16 -94q0 -8 2 -24t2 -23q0 -14 -7 -21.5t-26 -7.5 q-17 0 -20 11q-5 30 -5 55q0 53 18 104q14 41 44 85.5t51.5 68.5t64.5 69q40 42 58.5 62.5t51.5 64t48.5 77t29 83t13.5 100.5q0 152 -103.5 254t-253.5 106h-11q-113 0 -201.5 -54.5t-142.5 -139.5q-6 -11 -28.5 -14t-23.5 13zM403 29q0 14 5 29q14 41 56 41q49 0 49 -61 q0 -15 -5 -30q-14 -41 -57 -41q-48 0 -48 62z" />
<glyph unicode="@" horiz-adv-x="1688" d="M110 513q0 145 42 279q54 181 169 320q227 273 539 273q57 0 102 -8q188 -31 331 -163q158 -146 222 -383q41 -154 41 -316q0 -381 -196 -496q-63 -37 -123 -37q-78 0 -97 62q-58 -19 -93.5 -29.5t-104 -21.5t-136.5 -11q-158 0 -270 126t-112 317v22q3 98 40.5 188 t96.5 154.5t137 103t160 38.5q88 0 160.5 -39t116.5 -106v123q0 8 11.5 14.5t24.5 6.5q18 0 18 -13v-843q9 -57 56 -57q40 0 87 26t81.5 75t53 112.5t27 131t8.5 144.5q0 160 -41 311q-63 233 -214 371q-66 61 -146.5 101t-162.5 54q-42 7 -87 7q-112 0 -216 -44 q-153 -63 -265.5 -200t-165.5 -312q-40 -131 -40 -269q0 -51 4 -91q12 -122 56.5 -235t113 -203.5t155 -161t183.5 -113.5q145 -66 300 -66q163 0 289 74q9 5 19 5q9 0 16 -4t7 -10q0 -8 -12 -15q-145 -86 -331 -86q-167 0 -324 70q-210 94 -356.5 290t-169.5 445 q-4 40 -4 89zM478 434q0 -91 30 -170.5t79 -132.5t110 -83t123 -30q64 0 128 10.5t95.5 20t91.5 29.5v509q-4 3 -4 9v11q0 123 -86 205.5t-201 82.5q-98 0 -193.5 -76t-141.5 -204q-28 -76 -31 -160v-21z" />
<glyph unicode="A" horiz-adv-x="1403" d="M47 -5q0 10 10.5 16.5t22.5 6.5h116l461 1332h-121q-11 0 -16.5 5.5t-2.5 12.5q7 18 32 18h146q1 0 3 -0.5t3 -0.5q11 -2 14 -9l310 -895q1 -2 1 -5l159 -458h130q21 0 21 -14q0 -9 -11 -15.5t-23 -6.5h-300q-11 0 -16.5 5.5t-2.5 12.5q7 18 32 18h112l-151 435h-577 l-151 -435h132q11 0 17 -5.5t3 -12.5q-7 -18 -33 -18h-300q-20 0 -20 13zM411 489h553l-277 799z" />
<glyph unicode="B" horiz-adv-x="1032" d="M72 -5q0 10 10.5 16.5t22.5 6.5h113v1332h-125q-11 0 -16.5 5.5t-2.5 12.5q7 18 32 18h340q87 0 155.5 -9.5t129.5 -34t101 -63t63 -98.5t23 -139q0 -142 -90.5 -219t-258.5 -113q203 -30 309 -110.5t106 -222.5q0 -103 -39.5 -180.5t-109.5 -123.5t-158.5 -68.5 t-194.5 -22.5h-390q-20 0 -20 13zM272 18h223q97 0 174.5 19.5t137 60.5t91.5 109.5t32 161.5q0 150 -125 224.5t-376 93.5l-157 1v-670zM272 724l169 -1q84 11 145 24.5t116 36.5t89 55.5t53.5 81.5t19.5 113q0 75 -20.5 131t-56.5 91t-91.5 56.5t-118 29.5t-144.5 8h-161 v-626z" />
<glyph unicode="C" horiz-adv-x="1127" d="M60 677q0 360 123 521q53 69 135 113t160 60t162 16q210 0 362 -118v56q0 9 12 15.5t24 6.5q18 0 18 -13v-300q0 -9 -12 -15.5t-24 -6.5q-18 0 -18 13v179q-155 147 -375 147q-273 0 -397 -163q-116 -151 -116 -503q0 -361 125 -509q69 -82 178 -120t223 -38 q226 0 373 128q10 9 28 9.5t19 -13.5q0 -7 -7 -13q-169 -147 -426 -147q-124 0 -242.5 41.5t-193.5 130.5q-131 156 -131 523z" />
<glyph unicode="D" horiz-adv-x="1238" d="M74 -5q0 10 10.5 16.5t22.5 6.5h113l-1 1332h-125q-20 0 -20 13q0 10 10.5 16.5t22.5 6.5h460q176 0 319.5 -91t222 -239.5t78.5 -320.5q0 -157 -54 -307q-34 -93 -88 -172.5t-126 -141.5t-166 -97t-199 -35h-460q-20 0 -20 13zM273 1350l1 -1332h293q160 0 290.5 96.5 t203 258.5t72.5 353q0 167 -77 310.5t-211 228.5t-291 85h-281z" />
<glyph unicode="E" horiz-adv-x="1134" d="M72 -5q0 10 10.5 16.5t22.5 6.5h113v699q-3 3 -3 8t3 8v617h-125q-11 0 -16.5 5.5t-2.5 13t12.5 12.5t19.5 5h859q9 0 15 -4.5t6 -9.5v-134q0 -8 -11.5 -14.5t-24.5 -6.5q-18 0 -18 13v120h-660v-603h507q11 0 17 -5.5t3 -12.5q-7 -18 -33 -18h-494v-693h614l164 201 q5 5 17 9.5t22.5 2.5t10.5 -13q0 -5 -4 -9l-174 -214q-10 -13 -30 -13h-800q-20 0 -20 13z" />
<glyph unicode="F" horiz-adv-x="1087" d="M72 -5q0 10 10.5 16.5t22.5 6.5h113v699q-3 3 -3 8t3 8v617h-125q-11 0 -16.5 5.5t-2.5 13t12.5 12.5t19.5 5h859q9 0 15 -4.5t6 -9.5v-134q0 -8 -11.5 -14.5t-24.5 -6.5q-18 0 -18 13v120h-660v-603h507q11 0 17 -5.5t3 -12.5q-7 -18 -33 -18h-494v-693h130 q11 0 17 -5.5t3 -12.5q-7 -18 -33 -18h-297q-20 0 -20 13z" />
<glyph unicode="G" horiz-adv-x="1206" d="M55 677q0 358 124 521q53 69 135 113t160 60t162 16q209 0 361 -118v56q0 9 12 15.5t24 6.5q18 0 18 -13v-300q0 -9 -12 -15.5t-24 -6.5q-18 0 -18 13v179q-155 147 -375 147q-273 0 -397 -163q-116 -151 -116 -503q0 -361 125 -509q69 -82 178.5 -120t223.5 -38 q221 0 365 121l-1 380h-171q-11 0 -16.5 5.5t-2.5 12.5q7 18 33 18h300q20 0 20 -13q0 -10 -11 -16.5t-23 -6.5h-75l1 -376v-139q0 -8 -11.5 -14.5t-24.5 -6.5q-18 0 -18 13v96q-156 -110 -379 -110q-124 0 -242.5 41.5t-193.5 130.5q-131 156 -131 523z" />
<glyph unicode="H" horiz-adv-x="1343" d="M72 -5q0 10 10.5 16.5t22.5 6.5h113v699q-8 8 0 16v617h-125q-11 0 -16.5 5.5t-2.5 12.5q7 18 32 18h300q11 0 17 -5.5t3 -12.5q-7 -18 -33 -18h-121v-603h768v603h-125q-11 0 -16.5 5.5t-2.5 12.5q7 18 32 18h300q21 0 21 -14q0 -9 -11 -15.5t-23 -6.5h-121l1 -1332h133 q21 0 21 -14q0 -9 -11 -15.5t-23 -6.5h-300q-11 0 -16.5 5.5t-2.5 12.5q7 18 32 18h113l-1 693h-768v-693h133q11 0 17 -5.5t3 -12.5q-7 -18 -33 -18h-300q-20 0 -20 13z" />
<glyph unicode="I" horiz-adv-x="522" d="M74 -5q0 10 10.5 16.5t22.5 6.5h113l-1 1332h-125q-20 0 -20 13q0 10 10.5 16.5t22.5 6.5h300q21 0 21 -14q0 -9 -11 -15.5t-23 -6.5h-121l1 -1332h133q21 0 21 -14q0 -9 -11 -15.5t-23 -6.5h-300q-20 0 -20 13z" />
<glyph unicode="J" horiz-adv-x="584" d="M28 -410q0 12 20 19q66 22 116.5 59.5t82.5 88.5t53 104.5t30.5 121t13 121.5t3.5 122l-1 1123h-171q-11 0 -16.5 5.5t-2.5 12.5q7 18 32 18h300q21 0 21 -14q0 -9 -11 -15.5t-23 -6.5h-75l1 -1115q0 -60 -1.5 -102.5t-8.5 -106.5t-20 -111t-38.5 -103t-60.5 -96.5 t-88.5 -77.5t-121.5 -59q-8 -2 -12 -2q-22 0 -22 14z" />
<glyph unicode="K" horiz-adv-x="1241" d="M73 -4q0 9 11 15.5t22 6.5h113v1332h-126q-11 0 -17 6q-4 4 -3 7q0 2 1 5q7 18 32 18h300q11 0 17 -5.5t3 -12.5q-7 -18 -33 -18h-119l-1 -670q113 28 222 105q5 11 24 18q45 35 71 71l333 476h-121q-11 0 -16.5 5.5t-2.5 12.5q7 18 32 18h139q8 3 17 3h6q8 -2 9 -3h129 q11 0 17 -5.5t3 -12.5q-7 -18 -33 -18h-126l-338 -484q-27 -39 -81 -82q199 -215 248 -313l206 -453h134q21 0 21 -14q0 -9 -11 -15.5t-23 -6.5h-300q-11 0 -16.5 5.5t-2.5 12.5q7 18 32 18h106l-198 435q-45 91 -237 301q-121 -81 -243 -109v-627h133q21 0 21 -14 q0 -9 -11 -15.5t-23 -6.5h-300q-20 0 -20 14z" />
<glyph unicode="L" horiz-adv-x="1134" d="M72 -5q0 10 10.5 16.5t22.5 6.5h113v1332h-125q-11 0 -16.5 5.5t-2.5 12.5q7 18 32 18h288q11 0 17 -5.5t3 -12.5q-7 -18 -33 -18h-109v-1332h614l164 201q5 5 17 9.5t22.5 2.5t10.5 -13q0 -5 -4 -9l-174 -214q-10 -13 -30 -13h-800q-20 0 -20 13z" />
<glyph unicode="M" horiz-adv-x="1706" d="M72 -5q0 10 10.5 16.5t22.5 6.5h113v1332h-125q-11 0 -16.5 5.5t-2.5 12.5q7 18 32 18h145q136 0 172 -88l433 -1051l403 1031q23 58 66 83t112 25h155q21 0 21 -14q0 -9 -11 -15.5t-23 -6.5h-121v-1332h133q11 0 17 -5.5t3 -12.5q-7 -18 -33 -18h-300q-11 0 -16.5 5.5 t-2.5 12.5q7 18 32 18h113v1332q-39 -2 -57 -15.5t-36 -57.5l-430 -1100q-5 -12 -24.5 -16.5t-27.5 8.5l-458 1112q-25 59 -99 67v-1330h133q11 0 17 -5.5t3 -12.5q-7 -18 -33 -18h-300q-20 0 -20 13z" />
<glyph unicode="N" horiz-adv-x="1335" d="M68 1363q0 10 10.5 16.5t22.5 6.5h145q52 0 101.5 -34t69.5 -73l636 -1173v1244h-125q-11 0 -16.5 5.5t-2.5 12.5q7 18 32 18h300q21 0 21 -14q0 -9 -11 -15.5t-23 -6.5h-121v-1346q0 -8 -11.5 -14.5t-23.5 -6.5q-13 0 -18 8l-689 1269q-12 23 -40.5 46.5t-57.5 35.5 v-1324h93q11 0 17 -5.5t3 -12.5q-7 -18 -33 -18h-250q-11 0 -16.5 5.5t-2.5 12.5q7 18 32 18h103v1332h-125q-20 0 -20 13z" />
<glyph unicode="O" horiz-adv-x="1261" d="M60 677q0 360 123 521q53 69 135 113t160 60t162 16q132 0 251.5 -42.5t194.5 -140.5q122 -160 122 -519q0 -369 -132 -526q-77 -92 -200 -134.5t-249 -42.5q-124 0 -242.5 41.5t-193.5 130.5q-131 156 -131 523zM114 685q0 -361 125 -509q69 -82 178 -120t223 -38 q112 0 218 37t172 116q124 148 124 506q0 351 -118 505q-47 62 -119.5 101.5t-142.5 53.5t-147 14q-273 0 -397 -163q-116 -151 -116 -503z" />
<glyph unicode="P" horiz-adv-x="1009" d="M72 -5q0 10 10.5 16.5t22.5 6.5h113v1332h-125q-11 0 -16.5 5.5t-2.5 12.5q7 18 32 18h330q146 0 264.5 -50t188 -146.5t69.5 -221.5q0 -142 -75 -257t-198.5 -177t-267.5 -62q-69 0 -145 17v-471h133q11 0 17 -5.5t3 -12.5q-7 -18 -33 -18h-300q-20 0 -20 13zM272 530 q84 -23 160 -23q128 0 236 58t172 162t64 232q0 119 -65.5 209t-174 136t-241.5 46h-151v-820z" />
<glyph unicode="Q" horiz-adv-x="1273" d="M59 677q0 360 123 521q53 69 135 113t160 60t162 16q132 0 251.5 -42.5t194.5 -140.5q122 -160 122 -519q0 -369 -132 -526q-111 -132 -327 -167q29 -14 66 -44t69 -48t66 -18q68 0 116 21t96 72q10 10 28.5 11.5t20.5 -14.5q0 -6 -5 -11q-109 -115 -269 -115 q-43 0 -81 14t-65 34t-52 40t-54 34t-58 14q-88 0 -145.5 -24t-122.5 -89q-16 -16 -37 -9t-5 23q82 82 170 112q-194 37 -296 159q-131 156 -131 523zM113 685q0 -361 125 -509q69 -82 178 -120t223 -38q112 0 218 37t172 116q124 148 124 506q0 351 -118 505 q-47 62 -119.5 101.5t-142.5 53.5t-147 14q-273 0 -397 -163q-116 -151 -116 -503z" />
<glyph unicode="R" horiz-adv-x="1153" d="M69 -5q0 10 10.5 16.5t22.5 6.5h113v1332h-122q-11 0 -17 5.5t-3 12.5q7 18 33 18h393q211 0 318.5 -92t107.5 -254q0 -59 -24 -125q-34 -91 -109.5 -162t-183.5 -97q27 -14 49 -34t41 -51.5t30 -53t29.5 -65.5t26.5 -61l153 -373h134q21 0 21 -14q0 -9 -11 -15.5 t-23 -6.5h-300q-11 0 -17 5.5t-3 12.5q7 18 33 18h107l-146 356q-5 11 -18.5 41t-18.5 41t-17.5 36.5t-19.5 35.5l-20 30q-13 20 -22.5 29t-24 21.5t-28 18.5t-31 10.5t-36.5 5.5l-227 1v-626h133q11 0 17 -5.5t3 -12.5q-7 -18 -33 -18h-300q-20 0 -20 13zM269 680l241 -1h2 q151 0 255 99.5t104 253.5q0 153 -97 235.5t-288 82.5h-217v-670z" />
<glyph unicode="S" horiz-adv-x="991" d="M63 51v300q0 8 11.5 14.5t24.5 6.5q18 0 18 -13v-166q92 -79 201 -125t220 -50h19q122 0 210.5 60t112.5 161q8 34 8 63q0 132 -108 229q-42 38 -99.5 68t-115.5 50.5t-116 40.5t-117 49.5t-102 66.5q-122 107 -122 249v6q4 147 119 236t270 89h5q182 -1 334 -118v57 q0 9 12 15.5t24 6.5q18 0 18 -13v-112q8 -8 0 -18v-170q0 -9 -12 -15.5t-24 -6.5q-18 0 -18 13v179q-72 68 -164 106.5t-184 39.5h-5q-132 0 -225 -77t-96 -204v-6q0 -129 114 -231q52 -44 130 -79.5t145 -55.5t144.5 -56.5t130.5 -84.5q116 -105 116 -243 q0 -150 -118 -240.5t-282 -90.5h-19q-215 7 -406 149v-72q0 -8 -11.5 -14.5t-24.5 -6.5q-18 0 -18 13z" />
<glyph unicode="T" horiz-adv-x="1195" d="M80 1064v300q0 9 11 15.5t22 6.5h965q9 0 15 -4.5t6 -9.5v-300q0 -8 -11.5 -14.5t-24.5 -6.5q-18 0 -18 13v286h-428v-1332h143q11 0 17 -5.5t3 -12.5t-12.5 -12.5t-20.5 -5.5h-300q-11 0 -16.5 5.5t-2.5 13t12.5 12.5t19.5 5h103v1332h-429v-278q0 -8 -11.5 -14.5 t-24.5 -6.5q-18 0 -18 13z" />
<glyph unicode="U" horiz-adv-x="1446" d="M58 1363q0 10 10.5 16.5t22.5 6.5h300q11 0 17 -5.5t3 -12.5q-7 -18 -33 -18h-121v-789q0 -292 124 -411q73 -71 155 -101.5t185 -30.5q104 0 177 26t143 94q122 118 122 407v805h-125q-11 0 -16.5 5.5t-2.5 12.5q7 18 32 18h300q21 0 21 -14q0 -9 -11 -15.5t-23 -6.5 h-121v-796q0 -143 -29.5 -250.5t-104.5 -180.5q-79 -77 -169.5 -109t-205.5 -32q-226 0 -373 143q-132 128 -132 427v798h-125q-20 0 -20 13z" />
<glyph unicode="V" horiz-adv-x="1436" d="M64 1363q0 10 10.5 16.5t22.5 6.5h300q11 0 17 -5.5t3 -12.5q-7 -18 -33 -18h-111l439 -1270l440 1270h-133q-11 0 -16.5 5.5t-2.5 12.5q7 18 32 18h300q21 0 21 -14q0 -9 -11 -15.5t-23 -6.5h-115l-467 -1350q-6 -17 -32 -17q-17 0 -20 9l-470 1358h-131q-20 0 -20 13z " />
<glyph unicode="W" horiz-adv-x="2066" d="M64 1363q0 10 10.5 16.5t22.5 6.5h300q11 0 17 -5.5t3 -12.5q-7 -18 -33 -18h-111l410 -1266l318 960q2 8 12.5 13.5t21.5 4.5q15 0 19 -10l318 -968l410 1266h-133q-11 0 -16.5 5.5t-2.5 12.5q7 18 32 18h300q21 0 21 -14q0 -9 -11 -15.5t-23 -6.5h-115l-437 -1349 q-2 -7 -11.5 -13t-20.5 -6q-17 0 -20 10l-319 969l-319 -961q-6 -18 -32 -18q-18 0 -21 10l-439 1358h-131q-20 0 -20 13z" />
<glyph unicode="X" horiz-adv-x="1472" d="M79 -5q0 10 10.5 16.5t22.5 6.5h122l460 662l-461 670h-134q-20 0 -20 13q0 10 10.5 16.5t22.5 6.5h300q11 0 17 -5.5t3 -12.5q-7 -18 -33 -18h-102l429 -623l434 623h-126q-11 0 -16.5 5.5t-2.5 12.5q7 18 32 18h300q21 0 21 -14q0 -9 -11 -15.5t-23 -6.5h-121 l-460 -662l461 -670h133q21 0 21 -14q0 -9 -11 -15.5t-23 -6.5h-300q-11 0 -16.5 5.5t-2.5 12.5q7 18 32 18h102l-428 623l-434 -623h125q11 0 17 -5.5t3 -12.5q-7 -18 -33 -18h-300q-20 0 -20 13z" />
<glyph unicode="Y" horiz-adv-x="1445" d="M67 1363q0 10 10.5 16.5t22.5 6.5h300q11 0 17 -5.5t3 -12.5q-7 -18 -33 -18h-100l425 -614l436 614h-125q-11 0 -16.5 5.5t-2.5 12.5q7 18 32 18h300q21 0 21 -14q0 -9 -11 -15.5t-23 -6.5h-121l-466 -656v-676h129q11 0 17 -5.5t3 -12.5q-7 -18 -33 -18h-300 q-11 0 -16.5 5.5t-2.5 12.5q7 18 32 18h117v668l-460 664h-135q-20 0 -20 13z" />
<glyph unicode="Z" horiz-adv-x="1138" d="M87 -4q0 4 2 7l846 1347h-794v-112q0 -8 -11.5 -14.5t-24.5 -6.5q-18 0 -18 13v134q0 9 11 15.5t22 6.5h859q12 0 17.5 -7t0.5 -14l-845 -1347h739l164 201q5 5 17 9.5t22.5 2.5t10.5 -13q0 -5 -4 -9l-174 -214q-11 -13 -30 -13h-790q-20 0 -20 14z" />
<glyph unicode="[" horiz-adv-x="424" d="M201 -184v1761q2 8 12.5 13.5t21.5 5.5h155q20 0 20 -13q0 -10 -11 -16.5t-23 -6.5h-121v-1722h134q11 0 16.5 -5.5t2.5 -12.5q-7 -18 -33 -18h-154q-20 0 -20 14z" />
<glyph unicode="\" horiz-adv-x="1236" d="M65 1573q0 8 10 15t23 7q15 0 20 -8l940 -1758q1 -1 1 -4q0 -8 -10 -15t-23 -7q-15 0 -20 8l-940 1758q-1 1 -1 4z" />
<glyph unicode="]" horiz-adv-x="424" d="M14 1573q0 10 11 16.5t23 6.5h155q20 0 20 -14v-1758q0 -9 -11.5 -15.5t-22.5 -6.5h-154q-11 0 -16.5 5.5t-2.5 12.5q7 18 33 18h120v1722h-135q-20 0 -20 13z" />
<glyph unicode="^" d="M165 1060q0 6 6 12l257 244q12 10 29 10q9 0 15 -6l257 -244q3 -3 3 -8q0 -9 -10 -15.5t-21 -6.5q-12 0 -18 6l-238 225l-232 -221q-10 -10 -27 -10q-21 0 -21 14z" />
<glyph unicode="&#x302;" d="M165 1060q0 6 6 12l257 244q12 10 29 10q9 0 15 -6l257 -244q3 -3 3 -8q0 -9 -10 -15.5t-21 -6.5q-12 0 -18 6l-238 225l-232 -221q-10 -10 -27 -10q-21 0 -21 14z" />
<glyph unicode="&#x2c6;" d="M165 1060q0 6 6 12l257 244q12 10 29 10q9 0 15 -6l257 -244q3 -3 3 -8q0 -9 -10 -15.5t-21 -6.5q-12 0 -18 6l-238 225l-232 -221q-10 -10 -27 -10q-21 0 -21 14z" />
<glyph unicode="&#x2c4;" d="M165 1060q0 6 6 12l257 244q12 10 29 10q9 0 15 -6l257 -244q3 -3 3 -8q0 -9 -10 -15.5t-21 -6.5q-12 0 -18 6l-238 225l-232 -221q-10 -10 -27 -10q-21 0 -21 14z" />
<glyph unicode="_" horiz-adv-x="823" d="M-28 -172q0 10 11 16.5t23 6.5h825q20 0 20 -13q0 -10 -11 -16.5t-23 -6.5h-825q-20 0 -20 13z" />
<glyph unicode="`" d="M281 1315q0 9 11 15.5t23 6.5q8 0 14 -3l252 -165q5 -4 5 -10q0 -9 -10.5 -15.5t-21.5 -6.5q-10 0 -15 4l-252 164q-6 5 -6 10z" />
<glyph unicode="a" horiz-adv-x="989" d="M73 184q0 95 43 178t129.5 137t199.5 54q90 0 169.5 -38t128.5 -103v139q0 143 -103.5 241t-241.5 98q-68 0 -143 -44t-104 -102q-9 -19 -34 -17q-10 1 -15 6.5t-1 13.5q36 70 126.5 124.5t183.5 54.5q162 0 274 -106.5t112 -259.5l1 -542h111q20 0 20 -13 q0 -10 -11 -16.5t-23 -6.5h-131q-20 0 -20 14v64q-130 -78 -299 -78q-68 0 -127.5 8.5t-118 29t-92.5 62.5t-34 102zM127 193q0 -175 332 -175q169 0 285 86v163q-12 107 -106 178.5t-206 71.5q-133 0 -219 -93.5t-86 -230.5z" />
<glyph unicode="b" horiz-adv-x="926" d="M24 1363q0 10 10.5 16.5t22.5 6.5h135q9 0 15 -4.5t6 -9.5v-594q50 66 131 110t153 44q99 0 180.5 -62t128.5 -171t47 -241q0 -128 -48.5 -237t-135.5 -174t-192 -65q-41 0 -73.5 3.5t-69.5 12.5t-67.5 29t-52.5 50v-73q0 -8 -11.5 -14.5t-24.5 -6.5q-18 0 -18 13 l-1 1354h-115q-20 0 -20 13zM213 642l1 -348q1 -1 1 -5q0 -54 9 -97t22.5 -71t36.5 -48t44 -30.5t52.5 -16.5t54 -7t56.5 -1q82 0 158.5 62.5t117.5 175.5q33 90 33 194q0 96 -28 181t-73 142t-101.5 90t-113.5 33q-27 0 -61.5 -11.5t-70.5 -34t-66.5 -52t-50 -69.5 t-19.5 -82q0 -1 -2 -5z" />
<glyph unicode="c" horiz-adv-x="818" d="M72 450q0 128 48.5 238.5t135 177.5t191.5 67q224 0 329 -138q2 -4 2 -6q0 -7 -5 -12l-93 -94q-16 -16 -38 -9q-21 7 -5 23l83 84q-49 61 -117.5 88.5t-168.5 27.5q-80 0 -157 -64.5t-118 -177.5q-33 -91 -33 -196q0 -190 99.5 -315.5t221.5 -125.5q100 0 158 22.5 t125 77.5q7 5 17.5 8t19.5 0t9 -13q0 -7 -7 -13q-74 -59 -148 -88.5t-187 -29.5q-151 0 -256.5 134.5t-105.5 333.5z" />
<glyph unicode="d" horiz-adv-x="1011" d="M69 447q0 132 57.5 244t153.5 176t205 64q92 0 166.5 -43.5t118.5 -116.5v579h-115q-11 0 -16.5 5.5t-2.5 12.5q7 18 32 18h135q21 0 21 -14l1 -1300v-54h110q21 0 21 -14q0 -9 -11 -15.5t-23 -6.5h-131q-20 0 -20 14v44q-55 -19 -84 -28t-91.5 -19.5t-128.5 -10.5 q-162 0 -280 133t-118 332zM123 455q0 -95 32 -179t83 -139t114.5 -87t127.5 -32q29 0 54.5 1.5t51 5.5t40.5 6.5t41 10.5t33.5 10t37 12.5t33.5 11.5v498q-4 4 -4 8q0 129 -88 221t-207 92q-95 0 -185 -71t-134 -193q-30 -84 -30 -176z" />
<glyph unicode="e" horiz-adv-x="892" d="M75 450q0 187 93.5 321t235.5 157q30 4 46 4q127 -1 214.5 -54t127.5 -139.5t42 -202.5v-4q-2 -8 -12.5 -13.5t-21.5 -5.5h-669q-2 -18 -2 -55q0 -96 28.5 -180t74.5 -140t103.5 -88t115.5 -32q100 0 157.5 22.5t124.5 77.5q19 15 38 6q7 -4 7 -11t-7 -13 q-74 -60 -148 -89t-186 -29q-151 0 -256.5 134t-105.5 334zM136 549h643q-8 160 -96 253t-247 94q-13 0 -19 -1q-95 -9 -177 -103.5t-104 -242.5z" />
<glyph unicode="f" horiz-adv-x="686" d="M89 909q0 10 10.5 16.5t22.5 6.5h102v197q0 53 18 101q24 66 78 111t131 45q83 0 149 -51.5t66 -112.5q0 -9 -12 -15.5t-24 -6.5q-18 0 -18 13q0 48 -57 92.5t-117 44.5q-66 0 -113 -62.5t-47 -149.5v-206h232q11 0 17 -5.5t3 -12.5q-7 -18 -33 -18h-219l-1 -878h110 q11 0 17 -5.5t3 -12.5q-7 -18 -33 -18h-260q-11 0 -16.5 5.5t-2.5 12.5q7 18 32 18h96l1 878h-115q-20 0 -20 13z" />
<glyph unicode="g" horiz-adv-x="1056" d="M70 447q0 132 57.5 244t153 176t205.5 64q92 0 166.5 -43t118.5 -116v140q6 19 33 19h154q21 0 21 -14q0 -9 -11 -15.5t-23 -6.5h-120l-2 -816q2 -2 2 -3q3 -6 -2 -13v-137q0 -166 -77 -258.5t-238 -92.5q-64 0 -125.5 16.5t-115 48.5t-86 87t-32.5 126q0 9 12 15.5 t24 6.5q18 0 18 -13q0 -65 29.5 -115t77.5 -78.5t102 -43t109 -14.5q248 0 248 306v122q-52 -18 -82.5 -27.5t-92 -19.5t-126.5 -10q-163 0 -280.5 133.5t-117.5 331.5zM124 456q0 -95 32 -179t83 -139.5t114.5 -87.5t127.5 -32q33 0 65 3t51 5t51 11t39 11t44 14.5t38 12.5 l1 500q-3 3 -3 7q0 129 -87.5 221t-206.5 92q-95 0 -185 -70.5t-134 -192.5q-30 -84 -30 -176z" />
<glyph unicode="h" horiz-adv-x="1057" d="M51 1363q0 10 10.5 16.5t22.5 6.5h135q9 0 15 -4.5t6 -9.5v-589q49 65 129.5 107t164.5 42q71 0 131.5 -20.5t109.5 -63.5t76.5 -117t27.5 -172l1 -541h98q21 0 21 -14q0 -9 -11 -15.5t-23 -6.5h-244q-11 0 -17 5.5t-3 12.5q7 18 33 18h92l-1 532q0 76 -17.5 136.5 t-46.5 99t-69 64t-82.5 36t-89.5 10.5q-81 0 -159 -52.5t-107 -130.5q-12 -31 -12 -66q0 -1 -2 -5l1 -624h102q11 0 17 -5.5t3 -12.5q-7 -18 -33 -18h-244q-11 0 -17 5.5t-3 12.5q7 18 33 18h88l-1 1332h-115q-20 0 -20 13z" />
<glyph unicode="&#x2b0;" horiz-adv-x="1057" d="M51 1363q0 10 10.5 16.5t22.5 6.5h135q9 0 15 -4.5t6 -9.5v-589q49 65 129.5 107t164.5 42q71 0 131.5 -20.5t109.5 -63.5t76.5 -117t27.5 -172l1 -541h98q21 0 21 -14q0 -9 -11 -15.5t-23 -6.5h-244q-11 0 -17 5.5t-3 12.5q7 18 33 18h92l-1 532q0 76 -17.5 136.5 t-46.5 99t-69 64t-82.5 36t-89.5 10.5q-81 0 -159 -52.5t-107 -130.5q-12 -31 -12 -66q0 -1 -2 -5l1 -624h102q11 0 17 -5.5t3 -12.5q-7 -18 -33 -18h-244q-11 0 -17 5.5t-3 12.5q7 18 33 18h88l-1 1332h-115q-20 0 -20 13z" />
<glyph unicode="i" horiz-adv-x="470" d="M90 909q0 10 10.5 16.5t22.5 6.5h135q9 0 15 -4.5t6 -9.5l1 -900h110q21 0 21 -14q0 -9 -11 -15.5t-23 -6.5h-260q-11 0 -16.5 5.5t-2.5 12.5q7 18 32 18h96l-1 878h-115q-20 0 -20 13zM238 1333q0 19 8.5 33.5t19.5 14.5t19.5 -14.5t8.5 -33.5t-8.5 -33.5t-19.5 -14.5 t-19.5 14.5t-8.5 33.5z" />
<glyph unicode="j" horiz-adv-x="406" d="M24 -410q0 12 20 19q41 13 71 43t46.5 65.5t26.5 84t12.5 89t2.5 91.5v14l-1 900h-115q-11 0 -16.5 5.5t-2.5 12.5q7 18 32 18h135q9 0 15 -4.5t6 -9.5l1 -914v-39q0 -41 -2 -72.5t-8 -74.5t-19.5 -76t-34.5 -66.5t-55.5 -58t-79.5 -39.5q-8 -2 -12 -2q-22 0 -22 14z M180 1333q0 19 8.5 33.5t19.5 14.5t19.5 -14.5t8.5 -33.5t-8.5 -33.5t-19.5 -14.5t-19.5 14.5t-8.5 33.5z" />
<glyph unicode="&#x2b2;" horiz-adv-x="406" d="M24 -410q0 12 20 19q41 13 71 43t46.5 65.5t26.5 84t12.5 89t2.5 91.5v14l-1 900h-115q-11 0 -16.5 5.5t-2.5 12.5q7 18 32 18h135q9 0 15 -4.5t6 -9.5l1 -914v-39q0 -41 -2 -72.5t-8 -74.5t-19.5 -76t-34.5 -66.5t-55.5 -58t-79.5 -39.5q-8 -2 -12 -2q-22 0 -22 14z M180 1333q0 19 8.5 33.5t19.5 14.5t19.5 -14.5t8.5 -33.5t-8.5 -33.5t-19.5 -14.5t-19.5 14.5t-8.5 33.5z" />
<glyph unicode="k" horiz-adv-x="964" d="M68 1363q0 10 11 16.5t23 6.5h135q20 0 20 -14v-775h1q19 -19 31 -32q59 48 181 178.5t145 152.5h-110q-11 0 -17 5.5t-3 12.5q7 18 33 18h260q11 0 17 -5.5t3 -12.5q-7 -18 -33 -18h-92q-23 -21 -155.5 -163t-202.5 -195q161 -169 469 -520h114q21 0 21 -14 q0 -9 -11 -15.5t-23 -6.5h-260q-11 0 -17 5.5t-3 12.5q7 18 33 18h77q-323 367 -457 507v-507h111q11 0 16.5 -5.5t2.5 -12.5q-7 -18 -33 -18h-260q-11 0 -16.5 5.5t-2.5 12.5q7 18 33 18h95l-1 1332h-115q-20 0 -20 13z" />
<glyph unicode="l" horiz-adv-x="435" d="M59 1363q0 10 10.5 16.5t22.5 6.5h135q9 0 15 -4.5t6 -9.5l1 -1354h110q21 0 21 -14q0 -9 -11 -15.5t-23 -6.5h-260q-11 0 -16.5 5.5t-2.5 12.5q7 18 32 18h96l-1 1332h-115q-20 0 -20 13z" />
<glyph unicode="&#x2e1;" horiz-adv-x="435" d="M59 1363q0 10 10.5 16.5t22.5 6.5h135q9 0 15 -4.5t6 -9.5l1 -1354h110q21 0 21 -14q0 -9 -11 -15.5t-23 -6.5h-260q-11 0 -16.5 5.5t-2.5 12.5q7 18 32 18h96l-1 1332h-115q-20 0 -20 13z" />
<glyph unicode="m" horiz-adv-x="1734" d="M85 909q0 10 10.5 16.5t22.5 6.5h135q9 0 15 -4.5t6 -9.5v-135q49 66 129 107.5t165 41.5q108 0 195 -50.5t125 -142.5q42 90 131 141.5t189 51.5q71 0 131.5 -20.5t109.5 -63.5t76.5 -117t27.5 -172l1 -541h98q21 0 21 -14q0 -9 -11 -15.5t-23 -6.5h-244q-11 0 -17 5.5 t-3 12.5q7 18 33 18h92l-1 532q0 76 -17.5 136.5t-46.5 99t-69 64t-82.5 36t-89.5 10.5q-83 0 -157 -45.5t-106 -133.5q-18 -52 -18 -108l1 -591h98q11 0 17 -5.5t3 -12.5q-7 -18 -33 -18h-244q-11 0 -17 5.5t-3 12.5q7 18 33 18h92l-1 582q0 140 -91 218t-214 78 q-81 0 -159 -52.5t-107 -130.5q-12 -31 -12 -66q0 -2 -2 -6l1 -623h102q11 0 17 -5.5t3 -12.5q-7 -18 -33 -18h-244q-11 0 -17 5.5t-3 12.5q7 18 33 18h88l-1 878h-115q-20 0 -20 13z" />
<glyph unicode="n" horiz-adv-x="1094" d="M85 909q0 10 10.5 16.5t22.5 6.5h135q9 0 15 -4.5t6 -9.5v-135q49 66 129 107.5t165 41.5q71 0 131.5 -20.5t109.5 -63.5t76.5 -117t27.5 -172l1 -541h98q21 0 21 -14q0 -9 -11 -15.5t-23 -6.5h-244q-11 0 -17 5.5t-3 12.5q7 18 33 18h92l-1 532q0 76 -17.5 136.5 t-46.5 99t-69 64t-82.5 36t-89.5 10.5q-81 0 -159 -52.5t-107 -130.5q-12 -31 -12 -66q0 -2 -2 -6l1 -623h102q11 0 17 -5.5t3 -12.5q-7 -18 -33 -18h-244q-11 0 -17 5.5t-3 12.5q7 18 33 18h88l-1 878h-115q-20 0 -20 13z" />
<glyph unicode="o" d="M70 450q0 200 122.5 341t290.5 141q163 0 285 -137.5t122 -335.5q0 -131 -58.5 -241.5t-155 -173t-205.5 -62.5q-163 0 -282 135t-119 333zM124 459q0 -95 32.5 -179.5t84 -140.5t115.5 -88.5t128 -32.5q96 0 187 70t135 191q30 81 30 171q0 95 -33.5 180.5t-86 142.5 t-117.5 90t-129 33q-94 0 -183 -70t-133 -191q-30 -84 -30 -176z" />
<glyph unicode="p" horiz-adv-x="1048" d="M56 909q0 10 10.5 16.5t22.5 6.5h135q21 0 21 -13v-157q52 78 140.5 124t183.5 46q163 0 284.5 -137.5t121.5 -335.5q0 -199 -125 -338t-294 -139q-91 0 -175.5 52t-135.5 138l1 -561h110q11 0 17 -5.5t3 -12.5q-7 -18 -33 -18h-260q-11 0 -16.5 5.5t-2.5 12.5 q7 18 32 18h96q-1 304 -1 908v377h-115q-20 0 -20 13zM245 350q8 -92 60 -170t123 -120t141 -42q96 0 187 70t135 191q30 81 30 171q0 95 -33 180.5t-85.5 142.5t-117.5 90t-129 33q-74 0 -143.5 -34.5t-118 -106t-48.5 -164.5q0 -3 -1 -5v-236z" />
<glyph unicode="q" horiz-adv-x="1059" d="M70 447q0 132 57.5 244t153 176t205.5 64q92 0 166.5 -43.5t118.5 -116.5v138q0 9 11 15.5t22 6.5h154q21 0 21 -14q0 -9 -11 -15.5t-23 -6.5h-119v-1285h107q11 0 17 -5.5t3 -12.5q-7 -18 -33 -18h-255q-11 0 -17 5.5t-3 12.5q7 18 33 18h94v430q-53 -19 -83 -28 t-92.5 -19.5t-128.5 -10.5q-163 0 -280.5 133.5t-117.5 331.5zM124 456q0 -95 32 -179t83 -139.5t114.5 -87.5t127.5 -32q29 0 54.5 1.5t50.5 5.5t40.5 6.5t40.5 10t34 10.5t36.5 12.5t33.5 11.5v498q-4 4 -4 8q0 129 -87.5 221t-206.5 92q-95 0 -185 -70.5t-134 -192.5 q-30 -84 -30 -176z" />
<glyph unicode="r" horiz-adv-x="887" d="M92 907q0 10 10.5 16.5t22.5 6.5h135q9 0 15 -4.5t6 -9.5v-157q46 76 125 123t174 47q107 0 180.5 -66.5t73.5 -163.5q0 -67 -43 -105q-19 -17 -38 -8t-2 24q29 25 29 81q0 86 -64.5 144t-148.5 58q-87 0 -158.5 -52.5t-103.5 -141.5q-6 -19 -15 -61.5t-9 -58.5l1 -561 h110q11 0 17 -5.5t3 -12.5q-7 -18 -33 -18h-260q-11 0 -16.5 5.5t-2.5 12.5q7 18 32 18h96l-1 876h-115q-20 0 -20 13z" />
<glyph unicode="&#x2b3;" horiz-adv-x="887" d="M92 907q0 10 10.5 16.5t22.5 6.5h135q9 0 15 -4.5t6 -9.5v-157q46 76 125 123t174 47q107 0 180.5 -66.5t73.5 -163.5q0 -67 -43 -105q-19 -17 -38 -8t-2 24q29 25 29 81q0 86 -64.5 144t-148.5 58q-87 0 -158.5 -52.5t-103.5 -141.5q-6 -19 -15 -61.5t-9 -58.5l1 -561 h110q11 0 17 -5.5t3 -12.5q-7 -18 -33 -18h-260q-11 0 -16.5 5.5t-2.5 12.5q7 18 32 18h96l-1 876h-115q-20 0 -20 13z" />
<glyph unicode="s" horiz-adv-x="791" d="M44 84q0 7 7 13l148 132q17 16 38 8q8 -3 8.5 -10t-6.5 -14l-59 -53q50 -62 122 -102t153 -40q88 0 151.5 51.5t63.5 141.5q0 54 -21.5 96t-62.5 71.5t-77 46.5t-89 36q-42 15 -67.5 25t-67 32.5t-65.5 45.5t-43 59t-19 78q0 100 70 165.5t183 65.5q170 0 282 -131 q7 -9 -3 -19l-102 -99q-17 -17 -38 -9q-8 3 -9.5 9.5t5.5 13.5l91 89q-99 110 -239 110q-82 0 -134 -48.5t-52 -137.5q0 -36 16.5 -68t38.5 -53t59 -41t63 -30.5t65 -24.5q44 -16 74 -29t70.5 -37t65 -51t42.5 -67.5t18 -88.5q0 -109 -84 -173.5t-198 -64.5q-94 0 -171 40 t-130 103l-50 -44q-10 -9 -27.5 -10t-19.5 13z" />
<glyph unicode="&#x2e2;" horiz-adv-x="791" d="M44 84q0 7 7 13l148 132q17 16 38 8q8 -3 8.5 -10t-6.5 -14l-59 -53q50 -62 122 -102t153 -40q88 0 151.5 51.5t63.5 141.5q0 54 -21.5 96t-62.5 71.5t-77 46.5t-89 36q-42 15 -67.5 25t-67 32.5t-65.5 45.5t-43 59t-19 78q0 100 70 165.5t183 65.5q170 0 282 -131 q7 -9 -3 -19l-102 -99q-17 -17 -38 -9q-8 3 -9.5 9.5t5.5 13.5l91 89q-99 110 -239 110q-82 0 -134 -48.5t-52 -137.5q0 -36 16.5 -68t38.5 -53t59 -41t63 -30.5t65 -24.5q44 -16 74 -29t70.5 -37t65 -51t42.5 -67.5t18 -88.5q0 -109 -84 -173.5t-198 -64.5q-94 0 -171 40 t-130 103l-50 -44q-10 -9 -27.5 -10t-19.5 13z" />
<glyph unicode="&#x17f;" horiz-adv-x="791" d="M44 84q0 7 7 13l148 132q17 16 38 8q8 -3 8.5 -10t-6.5 -14l-59 -53q50 -62 122 -102t153 -40q88 0 151.5 51.5t63.5 141.5q0 54 -21.5 96t-62.5 71.5t-77 46.5t-89 36q-42 15 -67.5 25t-67 32.5t-65.5 45.5t-43 59t-19 78q0 100 70 165.5t183 65.5q170 0 282 -131 q7 -9 -3 -19l-102 -99q-17 -17 -38 -9q-8 3 -9.5 9.5t5.5 13.5l91 89q-99 110 -239 110q-82 0 -134 -48.5t-52 -137.5q0 -36 16.5 -68t38.5 -53t59 -41t63 -30.5t65 -24.5q44 -16 74 -29t70.5 -37t65 -51t42.5 -67.5t18 -88.5q0 -109 -84 -173.5t-198 -64.5q-94 0 -171 40 t-130 103l-50 -44q-10 -9 -27.5 -10t-19.5 13z" />
<glyph unicode="t" horiz-adv-x="625" d="M54 909q0 10 10.5 16.5t22.5 6.5h119v165q0 7 8 14t19 8h6q21 0 21 -13v-174h183q11 0 17 -5.5t3 -12.5q-7 -18 -33 -18h-170v-747q0 -58 31 -94.5t82 -36.5h2q52 0 105 30.5t63 60.5q2 7 11.5 12.5t20.5 5.5q21 0 21 -13v-2l-1 -2q-15 -46 -85.5 -87t-146.5 -41h-2 q-76 0 -115.5 46t-39.5 112v756h-132q-20 0 -20 13z" />
<glyph unicode="u" horiz-adv-x="1121" d="M57 909q0 10 10.5 16.5t22.5 6.5h135q9 0 15 -4.5t6 -9.5v-582q0 -135 85.5 -226.5t214.5 -91.5q33 0 64.5 3t51 5.5t50.5 10.5t39.5 10.5t43 14.5t38.5 13l-1 821h-115q-11 0 -16.5 5.5t-2.5 12.5q7 18 32 18h270q20 0 20 -13q0 -10 -10.5 -16.5t-22.5 -6.5h-101l1 -817 q7 -7 0 -16v-44l111 3q22 0 22 -14v-1q-1 -1 -1 -2q-6 -19 -31 -19l-133 -4q-22 0 -22 14v43q-52 -18 -82 -27.5t-91.5 -19.5t-126.5 -10q-154 0 -247.5 100.5t-93.5 244.5v569h-115q-20 0 -20 13z" />
<glyph unicode="v" horiz-adv-x="1196" d="M56 909q0 10 10.5 16.5t22.5 6.5h244q11 0 17 -5.5t3 -12.5q-7 -18 -33 -18h-77q8 -81 63.5 -217.5t144 -325t129.5 -290.5q98 198 156 320.5t121.5 280t73.5 232.5h-95q-11 0 -16.5 5.5t-2.5 12.5q7 18 32 18h244q21 0 21 -14q0 -9 -11 -15.5t-23 -6.5h-96 q-4 -30 -14.5 -68t-29 -88t-34.5 -91.5t-46 -107.5t-48 -105.5t-54.5 -115.5t-52 -108t-55.5 -113t-50 -101q-9 -15 -31 -15q-17 0 -20 9q-42 113 -135 311t-156 351t-69 242h-113q-20 0 -20 13z" />
<glyph unicode="w" horiz-adv-x="1712" d="M48 913q3 7 12.5 12.5t20.5 5.5h244q10 0 16 -5.5t3 -12.5t-12.5 -12.5t-20.5 -5.5h-77q6 -64 39 -172.5t66 -196t95 -241.5t87 -222q31 62 87 168.5t89 170.5t70 143.5t56 138t22 101.5q1 6 7.5 12.5t17.5 8.5t20 -1.5t9 -10.5q1 -61 30.5 -149.5t66.5 -168.5t93.5 -202 t91.5 -210q110 234 199.5 477.5t101.5 357.5h-95q-10 0 -16 5.5t-3 12.5t12.5 12.5t20.5 5.5h244q10 1 16 -5q4 -4 4 -9q0 -2 -1 -4q-3 -7 -12.5 -12.5t-20.5 -5.5h-96q-15 -131 -115.5 -396t-218.5 -505q-3 -7 -14 -12q-9 -4 -18 -4h-4q-12 2 -15 10q-43 115 -149 342.5 t-134 324.5q-29 -79 -81 -184.5t-128 -249.5t-117 -227q-3 -7 -14 -12q-9 -4 -18 -4h-4q-12 2 -15 10q-28 75 -120 302.5t-138.5 368.5t-51.5 232h-113q-10 -1 -16 5q-4 4 -4 9q0 2 1 4z" />
<glyph unicode="&#x2b7;" horiz-adv-x="1712" d="M48 913q3 7 12.5 12.5t20.5 5.5h244q10 0 16 -5.5t3 -12.5t-12.5 -12.5t-20.5 -5.5h-77q6 -64 39 -172.5t66 -196t95 -241.5t87 -222q31 62 87 168.5t89 170.5t70 143.5t56 138t22 101.5q1 6 7.5 12.5t17.5 8.5t20 -1.5t9 -10.5q1 -61 30.5 -149.5t66.5 -168.5t93.5 -202 t91.5 -210q110 234 199.5 477.5t101.5 357.5h-95q-10 0 -16 5.5t-3 12.5t12.5 12.5t20.5 5.5h244q10 1 16 -5q4 -4 4 -9q0 -2 -1 -4q-3 -7 -12.5 -12.5t-20.5 -5.5h-96q-15 -131 -115.5 -396t-218.5 -505q-3 -7 -14 -12q-9 -4 -18 -4h-4q-12 2 -15 10q-43 115 -149 342.5 t-134 324.5q-29 -79 -81 -184.5t-128 -249.5t-117 -227q-3 -7 -14 -12q-9 -4 -18 -4h-4q-12 2 -15 10q-28 75 -120 302.5t-138.5 368.5t-51.5 232h-113q-10 -1 -16 5q-4 4 -4 9q0 2 1 4z" />
<glyph unicode="x" horiz-adv-x="1173" d="M98 -5q0 10 10.5 16.5t22.5 6.5h96q16 147 323 479q-17 18 -50 53.5t-50 54.5t-45.5 50.5t-44.5 50t-38 44.5t-34.5 44t-25.5 37.5t-20 35.5t-10 29h-114q-20 0 -20 13q0 10 10.5 16.5t22.5 6.5h244q11 0 17 -5.5t3 -12.5q-7 -18 -33 -18h-73q8 -20 25.5 -46.5t55 -69.5 t59.5 -67.5t81 -88.5t79 -85q23 25 84 89.5t85 90.5t61 68.5t53.5 67t20.5 41.5h-95q-11 0 -16.5 5.5t-2.5 12.5q7 18 32 18h244q21 0 21 -14q0 -9 -11 -15.5t-23 -6.5h-97q-4 -13 -11.5 -28.5t-21 -35t-26.5 -37t-35 -43t-38 -44t-44.5 -49.5t-46 -49.5t-50 -53.5 t-49.5 -53q143 -156 228 -276.5t92 -208.5h112q21 0 21 -14q0 -9 -11 -15.5t-23 -6.5h-244q-11 0 -16.5 5.5t-2.5 12.5q7 18 32 18h77q-12 79 -91 187t-214 256q-137 -148 -217.5 -258t-85.5 -185h95q11 0 17 -5.5t3 -12.5q-7 -18 -33 -18h-244q-20 0 -20 13z" />
<glyph unicode="&#x2e3;" horiz-adv-x="1173" d="M98 -5q0 10 10.5 16.5t22.5 6.5h96q16 147 323 479q-17 18 -50 53.5t-50 54.5t-45.5 50.5t-44.5 50t-38 44.5t-34.5 44t-25.5 37.5t-20 35.5t-10 29h-114q-20 0 -20 13q0 10 10.5 16.5t22.5 6.5h244q11 0 17 -5.5t3 -12.5q-7 -18 -33 -18h-73q8 -20 25.5 -46.5t55 -69.5 t59.5 -67.5t81 -88.5t79 -85q23 25 84 89.5t85 90.5t61 68.5t53.5 67t20.5 41.5h-95q-11 0 -16.5 5.5t-2.5 12.5q7 18 32 18h244q21 0 21 -14q0 -9 -11 -15.5t-23 -6.5h-97q-4 -13 -11.5 -28.5t-21 -35t-26.5 -37t-35 -43t-38 -44t-44.5 -49.5t-46 -49.5t-50 -53.5 t-49.5 -53q143 -156 228 -276.5t92 -208.5h112q21 0 21 -14q0 -9 -11 -15.5t-23 -6.5h-244q-11 0 -16.5 5.5t-2.5 12.5q7 18 32 18h77q-12 79 -91 187t-214 256q-137 -148 -217.5 -258t-85.5 -185h95q11 0 17 -5.5t3 -12.5q-7 -18 -33 -18h-244q-20 0 -20 13z" />
<glyph unicode="y" horiz-adv-x="1190" d="M53 909q0 10 10.5 16.5t22.5 6.5h244q11 0 17 -5.5t3 -12.5q-7 -18 -33 -18h-77q9 -78 65.5 -202t142 -290.5t129.5 -275.5q180 327 239 453q99 209 112 315h-95q-11 0 -16.5 5.5t-2.5 12.5q7 18 32 18h244q21 0 21 -14q0 -9 -11 -15.5t-23 -6.5h-96q-8 -59 -36 -138.5 t-79 -183t-86 -170.5t-102 -188t-82 -148q-21 -38 -67 -119.5t-73 -129.5t-58.5 -108t-49.5 -99h92q11 0 17 -5.5t3 -12.5q-7 -18 -33 -18h-112q-3 -1 -9 -1q-1 0 -3 0.5t-3 0.5h-117q-11 0 -16.5 5.5t-2.5 12.5q7 18 32 18h100q17 39 48.5 98.5t59 108.5t72 128t66.5 119 q-36 97 -100.5 228.5t-116 228t-93 201t-46.5 172.5h-113q-20 0 -20 13z" />
<glyph unicode="&#x2b8;" horiz-adv-x="1190" d="M53 909q0 10 10.5 16.5t22.5 6.5h244q11 0 17 -5.5t3 -12.5q-7 -18 -33 -18h-77q9 -78 65.5 -202t142 -290.5t129.5 -275.5q180 327 239 453q99 209 112 315h-95q-11 0 -16.5 5.5t-2.5 12.5q7 18 32 18h244q21 0 21 -14q0 -9 -11 -15.5t-23 -6.5h-96q-8 -59 -36 -138.5 t-79 -183t-86 -170.5t-102 -188t-82 -148q-21 -38 -67 -119.5t-73 -129.5t-58.5 -108t-49.5 -99h92q11 0 17 -5.5t3 -12.5q-7 -18 -33 -18h-112q-3 -1 -9 -1q-1 0 -3 0.5t-3 0.5h-117q-11 0 -16.5 5.5t-2.5 12.5q7 18 32 18h100q17 39 48.5 98.5t59 108.5t72 128t66.5 119 q-36 97 -100.5 228.5t-116 228t-93 201t-46.5 172.5h-113q-20 0 -20 13z" />
<glyph unicode="z" horiz-adv-x="983" d="M119 779l1 130v3q6 19 33 19h701q11 -2 14.5 -8.5t-2.5 -14.5l-678 -890h517q91 0 128.5 18.5t64.5 69.5q3 6 14 11t21 5q17 0 17 -14q0 -2 -2 -6q-32 -61 -91 -90.5t-165 -29.5h-552q-13 0 -18 8t1 15l679 890h-628l-1 -108q0 -8 -11.5 -14.5t-24.5 -6.5q-18 0 -18 13z " />
<glyph unicode="{" horiz-adv-x="464" d="M129 697q0 15 23 37t49.5 41t28.5 22v30q0 50 -7 160.5t-7 165.5q0 145 40 230q24 51 46.5 86t52 66.5t66 47t81.5 16.5q20 0 20 -12q0 -8 -10 -16t-22 -8q-52 -1 -93.5 -43t-88.5 -140q-36 -74 -36 -219q0 -53 6.5 -163t6.5 -161q0 -5 -0.5 -16t-0.5 -17q0 -15 -23 -36 t-49 -40t-29 -23q2 -4 51 -44.5t50 -59.5q0 -6 0.5 -18t0.5 -19q0 -50 -6.5 -160t-6.5 -164q0 -143 36 -220q45 -94 88.5 -137.5t96.5 -43.5h7q23 2 23 -14q0 -9 -10 -15t-21 -7h-14q-40 0 -72 13.5t-58.5 42t-47 61t-44.5 82.5q-39 81 -39 231q0 56 7 165.5t7 157.5 q0 6 -0.5 18t-0.5 17q-2 5 -27.5 24.5t-49.5 43t-24 38.5z" />
<glyph unicode="|" horiz-adv-x="456" d="M201 -184v1758q0 7 8 13.5t19 7.5h6q21 0 21 -13v-1758q0 -7 -8 -13.5t-19 -7.5h-6q-21 0 -21 13z" />
<glyph unicode="&#x1c0;" horiz-adv-x="456" d="M201 -184v1758q0 7 8 13.5t19 7.5h6q21 0 21 -13v-1758q0 -7 -8 -13.5t-19 -7.5h-6q-21 0 -21 13z" />
<glyph unicode="}" horiz-adv-x="464" d="M-59 -183q0 10 11.5 16.5t24.5 5.5h8q48 0 86.5 39.5t84.5 134.5q36 76 36 220q0 53 -6.5 162t-6.5 159q0 7 0.5 19.5t0.5 18.5q0 15 23.5 38.5t49.5 43t28 23.5q-2 4 -51 42t-50 56v32q0 51 6.5 161.5t6.5 163.5q0 142 -37 220q-47 98 -92.5 144t-102.5 47q-20 0 -20 14 q0 10 11 16t23 6q80 -1 131 -52.5t102 -156.5q40 -84 40 -230q0 -55 -7.5 -165t-7.5 -160q0 -5 0.5 -15t0.5 -15q1 -2 51 -40.5t50 -58.5q0 -16 -23.5 -39.5t-49.5 -44t-28 -23.5q0 -5 -0.5 -15t-0.5 -15q0 -48 7.5 -159t7.5 -167q0 -148 -40 -233q-48 -101 -102 -154 t-134 -53h-13q-18 2 -18 14z" />
<glyph unicode="~" horiz-adv-x="932" d="M161 522q17 40 59 68.5t97 28.5q37 0 68.5 -12t56 -31t46.5 -38.5t48 -38t52 -26.5q19 -7 38 -7q57 0 86 56q6 15 33 15q20 0 19 -11q0 -3 -2 -6q-17 -38 -57.5 -63.5t-93.5 -25.5q-12 0 -24 1t-23.5 5t-19.5 6t-20 9t-17 9.5t-17 12t-14.5 11t-15.5 12.5l-14 11 q-2 2 -15 13.5t-16 14t-15 11.5t-17.5 12t-17 9.5t-20 8.5t-20 4t-23.5 2q-64 0 -89 -63q-8 -17 -33 -17q-10 0 -16 5.5t-3 13.5z" />
<glyph unicode="&#x303;" horiz-adv-x="932" d="M161 522q17 40 59 68.5t97 28.5q37 0 68.5 -12t56 -31t46.5 -38.5t48 -38t52 -26.5q19 -7 38 -7q57 0 86 56q6 15 33 15q20 0 19 -11q0 -3 -2 -6q-17 -38 -57.5 -63.5t-93.5 -25.5q-12 0 -24 1t-23.5 5t-19.5 6t-20 9t-17 9.5t-17 12t-14.5 11t-15.5 12.5l-14 11 q-2 2 -15 13.5t-16 14t-15 11.5t-17.5 12t-17 9.5t-20 8.5t-20 4t-23.5 2q-64 0 -89 -63q-8 -17 -33 -17q-10 0 -16 5.5t-3 13.5z" />
<glyph unicode="&#xa1;" horiz-adv-x="406" d="M153 917q0 15 5 30q14 41 57 41q48 0 48 -62q0 -14 -5 -29q-14 -41 -56 -41q-49 0 -49 61zM158 -202q0 56 20 490t30 434t28 -431.5t18 -492.5q0 -25 -20 -118t-30 -93t-28 92.5t-18 118.5z" />
<glyph unicode="&#xa2;" horiz-adv-x="818" d="M72 450q0 188 97.5 326t244.5 155v345q0 7 8 13.5t19 7.5h6q21 0 21 -13v-351q207 -6 308 -138q2 -4 2 -6q0 -7 -5 -12l-93 -94q-16 -16 -38 -9q-21 7 -5 23l83 84q-85 106 -252 115v-878q90 2 144 25t118 75q7 5 17.5 8t19.5 0t9 -13q0 -7 -7 -13q-69 -55 -136.5 -84 t-164.5 -33v-307q0 -7 -8 -13.5t-19 -7.5h-6q-21 0 -21 13v315q-145 10 -243.5 142.5t-98.5 324.5zM126 459q0 -176 86.5 -298t201.5 -140v875q-76 -8 -146.5 -71.5t-108.5 -169.5q-33 -91 -33 -196z" />
<glyph unicode="&#xa3;" horiz-adv-x="968" d="M35 627q0 10 11 16.5t23 6.5h136v479q0 45 14 89.5t41 82.5t72 61.5t101 23.5q83 0 148.5 -51.5t65.5 -112.5q0 -9 -12 -15.5t-24 -6.5q-18 0 -18 13q0 48 -57 92.5t-117 44.5q-67 0 -113.5 -62t-46.5 -150l-1 -488h361q11 0 16.5 -5.5t2.5 -12.5q-7 -18 -33 -18h-347 v-259q0 -191 -114 -337h531l106 129q5 5 17 9.5t22.5 2.5t10.5 -13q0 -6 -4 -10l-116 -141q-11 -13 -30 -13h-586h-3q-2 1 -3 1q-10 2 -13 9t3 14q125 146 125 341l1 267h-150q-20 0 -20 13z" />
<glyph unicode="&#xa4;" horiz-adv-x="852" d="M129 773q0 8 11.5 15t23.5 7q11 0 16 -6l61 -68q75 62 176 62q89 0 159 -52l54 48q17 16 38 8q8 -3 8.5 -10t-6.5 -14l-65 -58q68 -70 68 -168q0 -92 -65 -164l73 -69q4 -4 4 -8q0 -8 -11 -15t-24 -7q-9 0 -15 5l-64 60q-74 -56 -168 -56q-95 0 -164 56l-60 -58 q-10 -10 -27 -10q-6 0 -11 2q-10 4 -10 12q0 6 6 12l73 69q-63 69 -63 163q0 86 57 155l-72 81q-3 4 -3 8zM201 537q0 -89 64.5 -153.5t151.5 -64.5q84 0 143 60.5t59 149.5q0 91 -65.5 154.5t-150.5 63.5q-84 0 -143 -60t-59 -150z" />
<glyph unicode="&#xa5;" horiz-adv-x="1445" d="M67 1363q0 10 10.5 16.5t22.5 6.5h300q11 0 17 -5.5t3 -12.5q-7 -18 -33 -18h-100l425 -614l436 614h-125q-11 0 -16.5 5.5t-2.5 12.5q7 18 32 18h300q21 0 21 -14q0 -9 -11 -15.5t-23 -6.5h-121l-466 -656v-115h258q20 0 20 -13q0 -10 -11 -16.5t-23 -6.5h-244v-164h258 q20 0 20 -13q0 -10 -11 -16.5t-23 -6.5h-244v-325h129q11 0 17 -5.5t3 -12.5q-7 -18 -33 -18h-300q-11 0 -16.5 5.5t-2.5 12.5q7 18 32 18h117v325h-252q-20 0 -20 13q0 10 11 16.5t23 6.5h238v164h-252q-20 0 -20 13q0 10 11 16.5t23 6.5h238v107l-460 664h-135 q-20 0 -20 13z" />
<glyph unicode="&#xa6;" horiz-adv-x="456" d="M201 -184v728q0 8 12 15t25 7q17 0 17 -13v-729q0 -8 -11.5 -14.5t-24.5 -6.5q-18 0 -18 13zM201 813v761q0 8 11.5 14.5t24.5 6.5q18 0 18 -13v-760q0 -8 -12 -15t-25 -7q-17 0 -17 13z" />
<glyph unicode="&#xa7;" horiz-adv-x="983" d="M103 84q0 7 7 13l148 132q17 16 38 8q8 -3 8.5 -10t-6.5 -14l-59 -53q49 -62 122 -102t154 -40q88 0 151 51.5t63 141.5q0 40 -13 74t-33 58t-51 45t-58.5 34.5t-64.5 27.5q-20 5 -31 11q-29 10 -47 17t-48.5 21t-50.5 26.5t-43.5 31.5t-38 39.5t-24 47.5t-9.5 57 q0 74 56 137t133 86q-189 90 -189 230q0 100 70.5 165.5t183.5 65.5q169 0 281 -131q7 -9 -3 -19l-102 -99q-7 -7 -18.5 -9.5t-19.5 0.5t-9.5 9.5t5.5 13.5l91 89q-45 50 -106 80t-133 30q-82 0 -134 -48.5t-52 -137.5q0 -37 16 -70.5t40 -58t58.5 -46.5t64 -36t63.5 -26 q7 -2 20 -7q33 -12 50 -18.5t47.5 -20t48 -25.5t40.5 -31.5t35 -40t20.5 -49t8.5 -61.5q0 -73 -51.5 -134.5t-123.5 -83.5q175 -85 175 -235q0 -73 -41 -128.5t-104 -82.5t-137 -27q-94 0 -171 40t-130 103l-50 -44q-17 -16 -38 -8q-9 3 -9 11zM271 710q0 -21 5 -39.5 t12.5 -33.5t21 -30t25.5 -25.5t31.5 -22t33 -19t36.5 -17t36 -14.5t37 -13.5t33 -12.5q11 -2 23 -2q63 0 113.5 59t50.5 124q0 41 -14.5 74t-33.5 54t-54 40.5t-60 29.5t-68 25q-13 5 -20 7q-20 6 -43 2q-57 -9 -111 -63t-54 -123z" />
<glyph unicode="&#xa8;" horiz-adv-x="470" d="M238 1333q0 19 8.5 33.5t19.5 14.5t19.5 -14.5t8.5 -33.5t-8.5 -33.5t-19.5 -14.5t-19.5 14.5t-8.5 33.5zM498 1333q0 19 8.5 33.5t19.5 14.5t19.5 -14.5t8.5 -33.5t-8.5 -33.5t-19.5 -14.5t-19.5 14.5t-8.5 33.5z" />
<glyph unicode="&#x308;" horiz-adv-x="470" d="M238 1333q0 19 8.5 33.5t19.5 14.5t19.5 -14.5t8.5 -33.5t-8.5 -33.5t-19.5 -14.5t-19.5 14.5t-8.5 33.5zM498 1333q0 19 8.5 33.5t19.5 14.5t19.5 -14.5t8.5 -33.5t-8.5 -33.5t-19.5 -14.5t-19.5 14.5t-8.5 33.5z" />
<glyph unicode="&#xa9;" horiz-adv-x="1474" d="M97 689q0 136 46 264q70 192 230 312.5t362 120.5q130 0 246 -53.5t199 -145.5t131 -219.5t48 -269.5q0 -139 -47 -271q-71 -195 -231 -319.5t-360 -124.5q-174 0 -318 96t-225 257.5t-81 352.5zM151 698q0 -139 47.5 -265.5t127 -216.5t187 -143.5t222.5 -53.5 q112 0 216.5 51.5t182.5 140t124.5 213.5t46.5 265q0 139 -47.5 262.5t-127 210.5t-186.5 137.5t-223 50.5q-113 0 -217.5 -49.5t-182 -134.5t-124 -207.5t-46.5 -260.5zM350 674q0 128 48.5 238.5t135 177t191.5 66.5q224 0 329 -137q2 -4 2 -6q0 -6 -6 -12l-93 -94 q-16 -16 -37 -9t-5 23l83 84q-48 60 -117 87.5t-169 27.5q-81 0 -157.5 -64t-117.5 -177q-33 -91 -33 -197q0 -96 28.5 -180t74.5 -140t103 -88t115 -32q100 0 158 22.5t125 77.5q19 15 38 6q8 -4 8 -11t-8 -13q-74 -60 -148 -89t-186 -29q-151 0 -256.5 134.5t-105.5 333.5 z" />
<glyph unicode="&#xaa;" horiz-adv-x="953" d="M131 914q0 62 48.5 118t134.5 91t186 35h12q78 0 141 -25.5t104 -71.5v51q0 72 -39.5 127t-102.5 83t-138 28q-69 0 -143 -41.5t-103 -98.5q-7 -14 -34 -14q-19 0 -19 11q0 3 2 7q35 70 126 121t184 51q136 0 228 -74t92 -192l1 -175q3 -27 0 -32l1 -133v-5v-85h111 q9 0 15 -4t6 -10q0 -2 -1 -4q-3 -7 -12.5 -12.5t-20.5 -5.5h-131q-9 0 -14.5 4.5t-5.5 9.5l-1 64q-130 -78 -298 -78q-87 0 -161.5 31t-121 91t-46.5 138zM184 922q0 -70 42.5 -124.5t107.5 -81t139 -26.5q169 0 285 86l-1 159q-12 83 -85 135t-177 52h-8q-125 0 -214 -60 t-89 -140z" />
<glyph unicode="&#xab;" horiz-adv-x="816" d="M162 521q0 6 4 11l216 228q11 11 29 11q5 0 9 -1q9 -3 11 -9.5t-5 -13.5l-206 -218l211 -207q4 -4 4 -8q0 -8 -11.5 -15t-23.5 -7q-10 0 -15 5l-220 216q-3 3 -3 8zM362 521q0 6 4 11l216 228q11 11 29 11q5 0 9 -1q9 -3 11 -9.5t-5 -13.5l-206 -218l212 -207q4 -4 4 -8 q0 -8 -12 -15t-24 -7q-10 0 -15 5l-220 216q-3 3 -3 8z" />
<glyph unicode="&#xac;" horiz-adv-x="564" d="M77 524q0 3 1 5q3 7 12.5 12.5t20.5 5.5h354q9 0 14.5 -4t5.5 -10v-90q0 -8 -11.5 -14.5t-24.5 -6.5q-18 0 -18 13v76h-334q-20 0 -20 13z" />
<glyph unicode="&#xad;" horiz-adv-x="564" d="M80 526q0 3 1 5q7 18 33 18h350q20 0 20 -13q0 -3 -1 -5q-7 -18 -33 -18h-350q-20 0 -20 13z" />
<glyph unicode="&#xae;" horiz-adv-x="1474" d="M97 689q0 136 46 264q70 192 230 312.5t362 120.5q130 0 246 -53.5t199 -145.5t131 -219.5t48 -269.5q0 -139 -47 -271q-69 -189 -228.5 -316.5t-362.5 -127.5q-174 0 -318 96t-225 257.5t-81 352.5zM151 698q0 -264 156 -459q7 16 32 16h95v908h-105q-6 0 -9 1 q-169 -192 -169 -466zM322 220q82 -95 189 -148t224 -53q116 0 221 52.5t185 148.5h-227q-11 0 -16.5 5.5t-2.5 12.5q7 17 32 17h86l-123 237l-20 35q-16 28 -20.5 35t-19.5 29t-22.5 28.5t-23 21t-29 19.5t-32 10t-39.5 6h-196v-421h115q11 0 17 -5t3 -12q-7 -18 -33 -18 h-268zM353 1199h335q185 0 281 -64.5t96 -178.5q0 -37 -13 -70q-24 -66 -91 -121t-162 -77q21 -11 38 -25t33 -35.5t24 -34t25 -43.5t22 -39l133 -256h95q136 187 136 434q0 139 -47.5 262.5t-127 210.5t-186.5 137.5t-223 50.5q-209 0 -368 -151zM488 712l210 -1h2 q114 0 193 50t107 125q11 28 11 62q0 103 -83.5 159t-252.5 56h-187v-451z" />
<glyph unicode="&#xaf;" horiz-adv-x="564" d="M80 1156q0 10 11 16.5t23 6.5h350q20 0 20 -13q0 -10 -11 -16.5t-23 -6.5h-350q-20 0 -20 13z" />
<glyph unicode="&#xb0;" horiz-adv-x="641" d="M197 1105q0 57 42.5 95.5t103.5 38.5q59 0 95.5 -37t36.5 -88q0 -57 -42 -96t-104 -39q-59 0 -95.5 37t-36.5 89zM251 1114q0 -41 29 -70t63 -29q30 0 54 25.5t24 64.5q0 42 -29 70t-63 28q-29 0 -53.5 -25.5t-24.5 -63.5z" />
<glyph unicode="&#x30a;" horiz-adv-x="641" d="M197 1105q0 57 42.5 95.5t103.5 38.5q59 0 95.5 -37t36.5 -88q0 -57 -42 -96t-104 -39q-59 0 -95.5 37t-36.5 89zM251 1114q0 -41 29 -70t63 -29q30 0 54 25.5t24 64.5q0 42 -29 70t-63 28q-29 0 -53.5 -25.5t-24.5 -63.5z" />
<glyph unicode="&#xb1;" horiz-adv-x="824" d="M160 247q0 9 11 15.5t23 6.5h450q20 0 20 -14q0 -9 -11 -15.5t-23 -6.5h-450q-20 0 -20 14zM160 677q0 9 11 15.5t23 6.5h191v203q0 7 8 13.5t19 7.5h6q21 0 21 -13v-211h205q20 0 20 -14q0 -9 -11 -15.5t-23 -6.5h-191v-203q0 -7 -8 -13.5t-19 -7.5h-6q-21 0 -21 13v211 h-205q-20 0 -20 14z" />
<glyph unicode="&#xb2;" horiz-adv-x="888" d="M89 578q0 5 3 8q73 110 175 212q28 28 94 89t99 95q54 57 86.5 115.5t32.5 134.5q0 103 -69.5 174.5t-155.5 71.5q-53 0 -85 -24t-81 -93q-13 -17 -37 -13q-10 1 -13 7.5t2 13.5q52 74 100 109.5t127 35.5q111 0 188.5 -80t77.5 -193q0 -136 -129 -272 q-35 -37 -102 -98.5t-92 -86.5q-87 -87 -155 -184h413l100 125q8 9 28 11.5t22 -12.5q0 -3 -4 -9l-110 -138q-10 -13 -30 -13h-464q-21 0 -21 14z" />
<glyph unicode="&#xb3;" horiz-adv-x="888" d="M78 711q0 12 21 19.5t31 -2.5q49 -54 116 -90.5t138 -36.5q88 0 156.5 62.5t68.5 160.5q0 97 -68.5 165.5t-160.5 74.5q-18 2 -18 13q0 7 8.5 13.5t19.5 8.5q81 11 142.5 57.5t67.5 123.5v13q0 59 -38 102.5t-92.5 63t-115.5 19.5q-75 0 -131.5 -31.5t-80.5 -90.5 q-7 -17 -33 -17q-11 0 -16.5 5.5t-2.5 12.5q28 71 105 114t172 43q73 0 137 -23t107 -73t43 -117q0 -75 -50.5 -131t-130.5 -85q84 -28 137 -96.5t53 -156.5q0 -44 -15 -83q-29 -79 -105 -131.5t-172 -52.5q-165 0 -290 139q-3 3 -3 7z" />
<glyph unicode="&#xb4;" horiz-adv-x="828" d="M245 1151q0 7 11 15l252 165q9 6 22 6q21 0 21 -13q0 -8 -11 -16l-252 -164q-10 -7 -22 -7q-21 0 -21 14z" />
<glyph unicode="&#x341;" horiz-adv-x="828" d="M245 1151q0 7 11 15l252 165q9 6 22 6q21 0 21 -13q0 -8 -11 -16l-252 -164q-10 -7 -22 -7q-21 0 -21 14z" />
<glyph unicode="&#x301;" horiz-adv-x="828" d="M245 1151q0 7 11 15l252 165q9 6 22 6q21 0 21 -13q0 -8 -11 -16l-252 -164q-10 -7 -22 -7q-21 0 -21 14z" />
<glyph unicode="&#xb5;" horiz-adv-x="1160" d="M85 909q0 10 11 16.5t23 6.5h135q20 0 20 -14v-582q0 -135 85.5 -226.5t214.5 -91.5q33 0 64.5 3t51 5.5t50.5 10.5t39.5 10.5t43 14.5t38.5 13l-1 821h-115q-11 0 -16.5 5.5t-2.5 12.5q7 18 33 18h269q11 0 16.5 -5.5t2.5 -12.5q-7 -18 -32 -18h-101l1 -817q7 -7 0 -16 v-44l111 3q22 0 22 -14q0 -9 -10.5 -15.5t-21.5 -6.5l-133 -4q-22 0 -22 14v43q-52 -18 -82 -27.5t-91.5 -19.5t-126.5 -10q-95 0 -169 40.5t-118 111.5v-525h112q11 0 16.5 -5.5t2.5 -12.5q-7 -18 -33 -18h-260q-11 0 -16.5 5.5t-2.5 12.5q7 18 33 18h94v1287h-115 q-20 0 -20 13z" />
<glyph unicode="&#xb6;" horiz-adv-x="1348" d="M201 -185q0 3 1 5l670 1758q7 18 33 18q11 0 16.5 -5.5t2.5 -12.5l-670 -1758q-3 -7 -12.5 -12.5t-20.5 -5.5q-20 0 -20 13zM441 -185q0 3 1 5l670 1758q3 7 12.5 12.5t20.5 5.5q20 0 20 -13q0 -3 -1 -5l-670 -1758q-3 -7 -12.5 -12.5t-20.5 -5.5q-20 0 -20 13z" />
<glyph unicode="&#xb7;" horiz-adv-x="406" d="M153 499q0 14 5 29q14 41 56 41q49 0 49 -61q0 -15 -5 -30q-14 -41 -57 -41q-48 0 -48 62z" />
<glyph unicode="&#xb8;" horiz-adv-x="507" d="M105 -287q0 8 12 15t24 7q9 0 15 -5q34 -30 78 -30q36 0 63 24t27 59q0 20 -9 41q-10 20 -27.5 32.5t-35.5 12.5q-9 0 -27.5 -9t-27.5 -9q-7 0 -13 4q-10 6 -5 15l58 131q3 7 13 11.5t21 4.5q18 0 18 -12q0 -3 -1 -6l-42 -96q10 2 19 2q72 0 102 -63q10 -23 10 -47 q0 -53 -45 -92t-111 -39q-64 0 -111 40q-5 4 -5 9z" />
<glyph unicode="&#x327;" horiz-adv-x="507" d="M105 -287q0 8 12 15t24 7q9 0 15 -5q34 -30 78 -30q36 0 63 24t27 59q0 20 -9 41q-10 20 -27.5 32.5t-35.5 12.5q-9 0 -27.5 -9t-27.5 -9q-7 0 -13 4q-10 6 -5 15l58 131q3 7 13 11.5t21 4.5q18 0 18 -12q0 -3 -1 -6l-42 -96q10 2 19 2q72 0 102 -63q10 -23 10 -47 q0 -53 -45 -92t-111 -39q-64 0 -111 40q-5 4 -5 9z" />
<glyph unicode="&#xb9;" horiz-adv-x="672" d="M114 1368q0 9 9 15l162 119q10 7 25 7q20 0 20 -13v-894h133q21 0 21 -14q0 -10 -11 -16t-23 -6h-300q-11 0 -16.5 5.5t-2.5 12.5q7 18 32 18h113v847l-117 -86q-12 -8 -28.5 -8t-16.5 13z" />
<glyph unicode="&#xba;" horiz-adv-x="888" d="M120 1016q0 158 107 264.5t249 106.5q139 0 243.5 -105.5t104.5 -257.5q0 -156 -110 -261t-252 -105q-139 0 -240.5 103t-101.5 255zM174 1024q0 -72 27 -135t70.5 -105t97 -66t107.5 -24q52 0 104 23.5t94.5 64.5t69 102.5t26.5 131.5q0 141 -97 238t-211 97 q-51 0 -102.5 -24.5t-93 -66.5t-67 -104t-25.5 -132z" />
<glyph unicode="&#xbb;" horiz-adv-x="856" d="M187 305q0 6 6 12l209 205l-208 219q-4 4 -4 8q0 8 11.5 15t24.5 7q10 0 16 -6l216 -228q8 -8 -3 -19l-220 -216q-11 -11 -28 -11q-5 0 -10 2q-10 3 -10 12zM397 305q0 6 6 12l209 205l-208 219q-4 4 -4 8q0 8 11.5 15t24.5 7q10 0 16 -6l216 -228q3 -3 3 -7q0 -6 -6 -12 l-220 -216q-11 -11 -28 -11q-5 0 -10 2q-10 3 -10 12z" />
<glyph unicode="&#xbc;" horiz-adv-x="2048" d="M161 1401q0 9 9 15l162 119q10 7 26 7q19 0 19 -12v-895h134q20 0 20 -13q0 -3 -1 -5q-3 -7 -12.5 -12.5t-20.5 -5.5h-300q-11 0 -16.5 5.5t-2.5 12.5t12.5 12.5t20.5 5.5h112v847l-117 -86q-12 -8 -28.5 -8t-16.5 13zM201 -185q0 3 2 7l940 1758q9 16 32 16q19 0 19 -14 q0 -3 -1 -6l-940 -1758q-9 -16 -32 -16q-20 0 -20 13zM709 333q0 5 4 9l446 571q9 13 29 13q21 0 21 -14v-557l173 -1q20 0 20 -13q0 -10 -11 -16.5t-23 -6.5l-159 1v-301h134q11 0 16.5 -5.5t2.5 -12.5q-7 -18 -33 -18h-300q-11 0 -16.5 5.5t-2.5 12.5q7 18 33 18h112v301 h-426q-3 1 -5 1q-15 2 -15 13zM777 355l378 -1v485z" />
<glyph unicode="&#xbd;" horiz-adv-x="2048" d="M161 1401q0 9 9 15l162 119q10 7 26 7q19 0 19 -12v-895h134q20 0 20 -13q0 -3 -1 -5q-7 -18 -33 -18h-300q-20 0 -20 13q0 10 11 16.5t23 6.5h112v847l-117 -86q-12 -8 -28.5 -8t-16.5 13zM201 -185q0 3 2 7l940 1758q9 16 32 16q20 0 20 -13q0 -3 -2 -7l-940 -1758 q-9 -16 -32 -16q-20 0 -20 13zM822 1q71 107 176 212q28 28 94 89t99 95q53 56 85.5 115t32.5 135q0 103 -69.5 174.5t-155.5 71.5q-53 0 -85 -24t-81 -93q-13 -17 -36 -13q-10 2 -13.5 8t1.5 13q52 74 100.5 109.5t127.5 35.5q111 0 188 -80t77 -193q0 -137 -129 -273 q-35 -37 -102 -98t-92 -86q-84 -83 -154 -184h412l100 125q8 9 28 11.5t22 -12.5q0 -3 -4 -9l-110 -138q-10 -13 -29 -13h-465q-12 0 -17.5 7t-0.5 15z" />
<glyph unicode="&#xbe;" horiz-adv-x="2048" d="M-6 748q0 13 20 20.5t31 -3.5q49 -54 116.5 -90.5t138.5 -36.5q88 0 156 62.5t68 160.5q0 97 -68 165.5t-160 74.5q-18 2 -18 13q0 7 8.5 13.5t19.5 8.5q81 11 142 57.5t67 123.5q0 2 0.5 6.5t0.5 6.5q0 59 -38 102.5t-92.5 63t-115.5 19.5q-75 0 -132.5 -31.5 t-80.5 -90.5q-7 -17 -33 -17q-11 0 -16.5 5.5t-2.5 12.5q28 71 105 114t173 43q73 0 137 -23t107 -72.5t43 -116.5q0 -75 -51 -131.5t-130 -85.5q84 -28 136.5 -96.5t52.5 -156.5q0 -44 -15 -83q-29 -79 -104.5 -131.5t-171.5 -52.5q-165 0 -290 139q-3 3 -3 7zM201 -185 q0 3 2 7l940 1758q9 16 32 16q20 0 20 -13q0 -3 -2 -7l-940 -1758q-9 -16 -32 -16q-20 0 -20 13zM751 327.5q-4 5.5 1 13.5l406 571q8 10 28.5 13t22.5 -13v-558h173q20 0 20 -13q0 -10 -11 -16.5t-23 -6.5l-159 1v-301h134q20 0 20 -13q0 -10 -11 -16.5t-23 -6.5h-300 q-11 0 -16.5 5.5t-2.5 12.5q7 18 33 18h112v301h-386q-1 1 -3 1q-11 2 -15 7.5zM816 355l339 -1v478z" />
<glyph unicode="&#xbf;" horiz-adv-x="933" d="M49 -42q0 54 14 106.5t31 89t51.5 82.5t54.5 68t60 65q41 43 63 67.5t49 65t40 77.5q16 48 16 94q0 8 -2 24t-2 23q0 14 7 21.5t26 7.5q17 0 20 -11q5 -30 5 -54q0 -54 -18 -105q-14 -41 -44 -85.5t-51.5 -68.5t-64.5 -69q-40 -42 -58.5 -62.5t-51.5 -64t-48.5 -77 t-29 -83t-13.5 -100.5q0 -152 103.5 -254t253.5 -106h11q113 0 201.5 54.5t142.5 139.5q6 11 28.5 14t23.5 -13q0 -3 -2 -7q-61 -97 -167.5 -160.5t-237.5 -63.5h-16q-142 4 -248.5 88.5t-136.5 208.5q-10 41 -10 88zM403 921q0 15 5 30q14 41 57 41q48 0 48 -62 q0 -14 -5 -29q-14 -41 -56 -41q-49 0 -49 61z" />
<glyph unicode="&#xc0;" horiz-adv-x="1403" d="M47 -5q0 10 10.5 16.5t22.5 6.5h116l461 1332h-121q-11 0 -16.5 5.5t-2.5 12.5q7 18 32 18h146q1 0 3 -0.5t3 -0.5q11 -2 14 -9l310 -895q1 -2 1 -5l159 -458h130q21 0 21 -14q0 -9 -11 -15.5t-23 -6.5h-300q-11 0 -16.5 5.5t-2.5 12.5q7 18 32 18h112l-151 435h-577 l-151 -435h132q11 0 17 -5.5t3 -12.5q-7 -18 -33 -18h-300q-20 0 -20 13zM411 489h553l-277 799zM486 1687q0 9 11 15.5t23 6.5q8 0 14 -3l252 -165q5 -4 5 -10q0 -9 -10.5 -15.5t-21.5 -6.5q-10 0 -15 4l-252 164q-6 5 -6 10z" />
<glyph unicode="&#xc1;" horiz-adv-x="1403" d="M47 -5q0 10 10.5 16.5t22.5 6.5h116l461 1332h-121q-11 0 -16.5 5.5t-2.5 12.5q7 18 32 18h146q1 0 3 -0.5t3 -0.5q11 -2 14 -9l310 -895q1 -2 1 -5l159 -458h130q21 0 21 -14q0 -9 -11 -15.5t-23 -6.5h-300q-11 0 -16.5 5.5t-2.5 12.5q7 18 32 18h112l-151 435h-577 l-151 -435h132q11 0 17 -5.5t3 -12.5q-7 -18 -33 -18h-300q-20 0 -20 13zM411 489h553l-277 799zM498 1523q0 7 11 15l252 165q9 6 22 6q21 0 21 -13q0 -8 -11 -16l-252 -164q-10 -7 -22 -7q-21 0 -21 14z" />
<glyph unicode="&#xc2;" horiz-adv-x="1403" d="M47 -5q0 10 10.5 16.5t22.5 6.5h116l461 1332h-121q-11 0 -16.5 5.5t-2.5 12.5q7 18 32 18h146q1 0 3 -0.5t3 -0.5q11 -2 14 -9l310 -895q1 -2 1 -5l159 -458h130q21 0 21 -14q0 -9 -11 -15.5t-23 -6.5h-300q-11 0 -16.5 5.5t-2.5 12.5q7 18 32 18h112l-151 435h-577 l-151 -435h132q11 0 17 -5.5t3 -12.5q-7 -18 -33 -18h-300q-20 0 -20 13zM411 489h553l-277 799zM504 1523q0 5 6 11l153 155q11 11 28 11q11 0 17 -6l148 -155q3 -3 3 -7q0 -9 -10.5 -16t-22.5 -7t-18 6l-128 134l-128 -129q-11 -11 -27 -11q-21 0 -21 14z" />
<glyph unicode="&#xc3;" horiz-adv-x="1403" d="M47 -5q0 10 10.5 16.5t22.5 6.5h116l461 1332h-121q-11 0 -16.5 5.5t-2.5 12.5q7 18 32 18h146q1 0 3 -0.5t3 -0.5q11 -2 14 -9l310 -895q1 -2 1 -5l159 -458h130q21 0 21 -14q0 -9 -11 -15.5t-23 -6.5h-300q-11 0 -16.5 5.5t-2.5 12.5q7 18 32 18h112l-151 435h-577 l-151 -435h132q11 0 17 -5.5t3 -12.5q-7 -18 -33 -18h-300q-20 0 -20 13zM411 489h553l-277 799zM436 1580q0 3 1 5q21 52 74 72q29 11 56 11q31 0 60 -15.5t49 -35t46.5 -40t49.5 -28.5q15 -5 28 -5q35 0 55 42q3 7 13.5 11t20.5 4q20 0 20 -11q0 -3 -2 -7 q-14 -30 -48.5 -52t-75.5 -22q-23 0 -44 7q-34 11 -82.5 54t-74.5 54q-18 8 -34 8q-40 0 -59 -48q-7 -17 -33 -17q-20 0 -20 13z" />
<glyph unicode="&#xc4;" horiz-adv-x="1403" d="M47 -5q0 10 10.5 16.5t22.5 6.5h116l461 1332h-121q-11 0 -16.5 5.5t-2.5 12.5q7 18 32 18h146q1 0 3 -0.5t3 -0.5q11 -2 14 -9l310 -895q1 -2 1 -5l159 -458h130q21 0 21 -14q0 -9 -11 -15.5t-23 -6.5h-300q-11 0 -16.5 5.5t-2.5 12.5q7 18 32 18h112l-151 435h-577 l-151 -435h132q11 0 17 -5.5t3 -12.5q-7 -18 -33 -18h-300q-20 0 -20 13zM411 489h553l-277 799zM464 1557q0 19 8.5 33.5t19.5 14.5t19.5 -14.5t8.5 -33.5t-8.5 -33.5t-19.5 -14.5t-19.5 14.5t-8.5 33.5zM724 1557q0 19 8.5 33.5t19.5 14.5t19.5 -14.5t8.5 -33.5 t-8.5 -33.5t-19.5 -14.5t-19.5 14.5t-8.5 33.5z" />
<glyph unicode="&#xc5;" horiz-adv-x="1403" d="M47 -5q0 10 10.5 16.5t22.5 6.5h116l461 1332h-121q-11 0 -16.5 5.5t-2.5 12.5q7 18 32 18h146q1 0 3 -0.5t3 -0.5q11 -2 14 -9l310 -895q1 -2 1 -5l159 -458h130q21 0 21 -14q0 -9 -11 -15.5t-23 -6.5h-300q-11 0 -16.5 5.5t-2.5 12.5q7 18 32 18h112l-151 435h-577 l-151 -435h132q11 0 17 -5.5t3 -12.5q-7 -18 -33 -18h-300q-20 0 -20 13zM411 489h553l-277 799zM539 1517q0 57 42.5 95.5t103.5 38.5q59 0 95.5 -37t36.5 -88q0 -57 -42 -96t-104 -39q-59 0 -95.5 37t-36.5 89zM593 1526q0 -41 29 -70t63 -29q30 0 54 25.5t24 64.5 q0 42 -29 70t-63 28q-29 0 -53.5 -25.5t-24.5 -63.5z" />
<glyph unicode="&#xc6;" horiz-adv-x="1764" d="M96 -5q0 10 11 16.5t23 6.5h115l461 1332h-121q-11 0 -17 6t-2 13q3 7 13 12t20 5h860q9 0 14.5 -4t5.5 -10v-134q0 -8 -11.5 -14.5t-24.5 -6.5q-18 0 -18 13v120h-656l115 -603h389q11 0 16.5 -5.5t2.5 -12.5q-7 -18 -33 -18h-368l44 -233v-1l88 -459h356l164 201 q3 4 11.5 7.5t17 4.5t15 -2t6.5 -11q0 -5 -4 -9l-174 -214q-10 -13 -30 -13h-540q-11 0 -16.5 5.5t-2.5 12.5q7 18 33 18h108l-83 435h-436l-151 -435h133q11 0 16.5 -5.5t2.5 -12.5q-7 -18 -33 -18h-300q-20 0 -20 13zM460 489h417l-43 226q-8 5 -5 14q0 2 2 4l-102 534z " />
<glyph unicode="&#xc7;" horiz-adv-x="1127" d="M60 677q0 360 123 521q40 52 96 90.5t118 59t122 30t121 9.5q210 0 362 -118v56q0 9 12 15.5t24 6.5q18 0 18 -13v-300q0 -9 -12 -15.5t-24 -6.5q-18 0 -18 13v179q-155 147 -375 147q-77 0 -145 -13.5t-137 -51.5t-115 -98q-60 -79 -88 -212.5t-28 -290.5 q0 -361 125 -509q47 -56 118.5 -93t141 -51t141.5 -14q109 0 200.5 29t172.5 99q6 5 17 8t20.5 0t9.5 -12q0 -7 -7 -13q-159 -137 -390 -146q1 -2 -1 -8l-42 -96q10 2 19 2q71 0 101 -63q10 -23 10 -47q0 -53 -45 -92t-111 -39q-63 0 -110 40q-4 4 -4 9q0 8 11 15t23 7 q10 0 15 -5q34 -30 78 -30q36 0 63.5 24t27.5 59q0 20 -10 41q-10 20 -26.5 32.5t-35.5 12.5q-8 0 -27 -9t-29 -9q-7 0 -13 4q-9 6 -4 15l57 131q1 2 4 5q-121 3 -235.5 44.5t-187.5 127.5q-131 156 -131 523z" />
<glyph unicode="&#xc8;" horiz-adv-x="1134" d="M72 -5q0 10 10.5 16.5t22.5 6.5h113v699q-8 8 0 16v617h-125q-11 0 -16.5 5.5t-2.5 12.5q7 18 32 18h859q9 0 15 -4.5t6 -9.5v-134q0 -8 -11.5 -14.5t-24.5 -6.5q-18 0 -18 13v120h-660v-603h507q11 0 17 -5.5t3 -12.5q-7 -18 -33 -18h-494v-693h614l164 201q5 5 17 9.5 t22.5 2.5t10.5 -13q0 -5 -4 -9l-174 -214q-10 -13 -30 -13h-800q-20 0 -20 13zM409 1687q0 9 11 15.5t23 6.5q8 0 14 -3l252 -165q5 -4 5 -10q0 -9 -10.5 -15.5t-21.5 -6.5q-10 0 -15 4l-252 164q-6 5 -6 10z" />
<glyph unicode="&#xc9;" horiz-adv-x="1134" d="M72 -5q0 10 10.5 16.5t22.5 6.5h113v699q-8 8 0 16v617h-125q-11 0 -16.5 5.5t-2.5 12.5q7 18 32 18h859q9 0 15 -4.5t6 -9.5v-134q0 -8 -11.5 -14.5t-24.5 -6.5q-18 0 -18 13v120h-660v-603h507q11 0 17 -5.5t3 -12.5q-7 -18 -33 -18h-494v-693h614l164 201q5 5 17 9.5 t22.5 2.5t10.5 -13q0 -5 -4 -9l-174 -214q-10 -13 -30 -13h-800q-20 0 -20 13zM421 1523q0 7 11 15l252 165q9 6 22 6q21 0 21 -13q0 -8 -11 -16l-252 -164q-10 -7 -22 -7q-21 0 -21 14z" />
<glyph unicode="&#xca;" horiz-adv-x="1134" d="M72 -5q0 10 10.5 16.5t22.5 6.5h113v699q-8 8 0 16v617h-125q-11 0 -16.5 5.5t-2.5 12.5q7 18 32 18h859q9 0 15 -4.5t6 -9.5v-134q0 -8 -11.5 -14.5t-24.5 -6.5q-18 0 -18 13v120h-660v-603h507q11 0 17 -5.5t3 -12.5q-7 -18 -33 -18h-494v-693h614l164 201q5 5 17 9.5 t22.5 2.5t10.5 -13q0 -5 -4 -9l-174 -214q-10 -13 -30 -13h-800q-20 0 -20 13zM251 1523q0 6 6 12l257 244q12 10 29 10q9 0 15 -6l257 -244q3 -3 3 -8q0 -9 -10 -15.5t-21 -6.5q-12 0 -18 6l-238 225l-232 -221q-10 -10 -27 -10q-21 0 -21 14z" />
<glyph unicode="&#xcb;" horiz-adv-x="1134" d="M72 -5q0 10 10.5 16.5t22.5 6.5h113v699q-8 8 0 16v617h-125q-11 0 -16.5 5.5t-2.5 12.5q7 18 32 18h859q9 0 15 -4.5t6 -9.5v-134q0 -8 -11.5 -14.5t-24.5 -6.5q-18 0 -18 13v120h-660v-603h507q11 0 17 -5.5t3 -12.5q-7 -18 -33 -18h-494v-693h614l164 201q5 5 17 9.5 t22.5 2.5t10.5 -13q0 -5 -4 -9l-174 -214q-10 -13 -30 -13h-800q-20 0 -20 13zM378 1557q0 19 8.5 33.5t19.5 14.5t19.5 -14.5t8.5 -33.5t-8.5 -33.5t-19.5 -14.5t-19.5 14.5t-8.5 33.5zM638 1557q0 19 8.5 33.5t19.5 14.5t19.5 -14.5t8.5 -33.5t-8.5 -33.5t-19.5 -14.5 t-19.5 14.5t-8.5 33.5z" />
<glyph unicode="&#xcc;" horiz-adv-x="522" d="M74 -5q0 10 10.5 16.5t22.5 6.5h113l-1 1332h-125q-20 0 -20 13q0 10 10.5 16.5t22.5 6.5h300q21 0 21 -14q0 -9 -11 -15.5t-23 -6.5h-121l1 -1332h133q21 0 21 -14q0 -9 -11 -15.5t-23 -6.5h-300q-20 0 -20 13zM100 1687q0 9 11 15.5t23 6.5q8 0 14 -3l252 -165 q5 -4 5 -10q0 -9 -10.5 -15.5t-21.5 -6.5q-10 0 -15 4l-252 164q-6 5 -6 10z" />
<glyph unicode="&#xcd;" horiz-adv-x="522" d="M74 -5q0 10 10.5 16.5t22.5 6.5h113l-1 1332h-125q-20 0 -20 13q0 10 10.5 16.5t22.5 6.5h300q21 0 21 -14q0 -9 -11 -15.5t-23 -6.5h-121l1 -1332h133q21 0 21 -14q0 -9 -11 -15.5t-23 -6.5h-300q-20 0 -20 13zM103 1523q0 7 11 15l252 165q9 6 22 6q21 0 21 -13 q0 -8 -11 -16l-252 -164q-10 -7 -22 -7q-21 0 -21 14z" />
<glyph unicode="&#xce;" horiz-adv-x="522" d="M-27 1523q0 6 6 12l257 244q12 10 29 10q9 0 15 -6l257 -244q3 -3 3 -8q0 -9 -10 -15.5t-21 -6.5q-12 0 -18 6l-238 225l-232 -221q-10 -10 -27 -10q-21 0 -21 14zM74 -5q0 10 10.5 16.5t22.5 6.5h113l-1 1332h-125q-20 0 -20 13q0 10 10.5 16.5t22.5 6.5h300 q21 0 21 -14q0 -9 -11 -15.5t-23 -6.5h-121l1 -1332h133q21 0 21 -14q0 -9 -11 -15.5t-23 -6.5h-300q-20 0 -20 13z" />
<glyph unicode="&#xcf;" horiz-adv-x="522" d="M74 -5q0 10 10.5 16.5t22.5 6.5h113l-1 1332h-125q-20 0 -20 13q0 10 10.5 16.5t22.5 6.5h300q21 0 21 -14q0 -9 -11 -15.5t-23 -6.5h-121l1 -1332h133q21 0 21 -14q0 -9 -11 -15.5t-23 -6.5h-300q-20 0 -20 13zM99 1557q0 19 8.5 33.5t19.5 14.5t19.5 -14.5t8.5 -33.5 t-8.5 -33.5t-19.5 -14.5t-19.5 14.5t-8.5 33.5zM359 1557q0 19 8.5 33.5t19.5 14.5t19.5 -14.5t8.5 -33.5t-8.5 -33.5t-19.5 -14.5t-19.5 14.5t-8.5 33.5z" />
<glyph unicode="&#xd0;" horiz-adv-x="1238" d="M74 -5q0 10 10.5 16.5t22.5 6.5h113v645h-126q-20 0 -20 13q0 10 11 16.5t23 6.5h111v651h-125q-20 0 -20 13q0 10 10.5 16.5t22.5 6.5h460q176 0 319.5 -91t222 -239.5t78.5 -320.5q0 -157 -54 -307q-34 -93 -88 -172.5t-126 -141.5t-166 -97t-199 -35h-460 q-20 0 -20 13zM273 699h385q20 0 20 -13q0 -10 -11 -16.5t-23 -6.5h-370v-645h293q160 0 290.5 96.5t203 258.5t72.5 353q0 167 -77 310.5t-211 228.5t-291 85h-281v-651z" />
<glyph unicode="&#x189;" horiz-adv-x="1238" d="M74 -5q0 10 10.5 16.5t22.5 6.5h113v645h-126q-20 0 -20 13q0 10 11 16.5t23 6.5h111v651h-125q-20 0 -20 13q0 10 10.5 16.5t22.5 6.5h460q176 0 319.5 -91t222 -239.5t78.5 -320.5q0 -157 -54 -307q-34 -93 -88 -172.5t-126 -141.5t-166 -97t-199 -35h-460 q-20 0 -20 13zM273 699h385q20 0 20 -13q0 -10 -11 -16.5t-23 -6.5h-370v-645h293q160 0 290.5 96.5t203 258.5t72.5 353q0 167 -77 310.5t-211 228.5t-291 85h-281v-651z" />
<glyph unicode="&#x110;" horiz-adv-x="1238" d="M74 -5q0 10 10.5 16.5t22.5 6.5h113v645h-126q-20 0 -20 13q0 10 11 16.5t23 6.5h111v651h-125q-20 0 -20 13q0 10 10.5 16.5t22.5 6.5h460q176 0 319.5 -91t222 -239.5t78.5 -320.5q0 -157 -54 -307q-34 -93 -88 -172.5t-126 -141.5t-166 -97t-199 -35h-460 q-20 0 -20 13zM273 699h385q20 0 20 -13q0 -10 -11 -16.5t-23 -6.5h-370v-645h293q160 0 290.5 96.5t203 258.5t72.5 353q0 167 -77 310.5t-211 228.5t-291 85h-281v-651z" />
<glyph unicode="&#xd1;" horiz-adv-x="1335" d="M68 1363q0 10 10.5 16.5t22.5 6.5h145q52 0 101.5 -34t69.5 -73l636 -1173v1244h-125q-11 0 -16.5 5.5t-2.5 12.5q7 18 32 18h300q21 0 21 -14q0 -9 -11 -15.5t-23 -6.5h-121v-1346q0 -8 -11.5 -14.5t-23.5 -6.5q-13 0 -18 8l-689 1269q-12 23 -40.5 46.5t-57.5 35.5 v-1324h93q11 0 17 -5.5t3 -12.5q-7 -18 -33 -18h-250q-11 0 -16.5 5.5t-2.5 12.5q7 18 32 18h103v1332h-125q-20 0 -20 13zM435 1580q0 3 1 5q21 52 74 72q29 11 56 11q31 0 60 -15.5t49 -35t46.5 -40t49.5 -28.5q15 -5 28 -5q35 0 55 42q3 7 13.5 11t20.5 4q20 0 20 -11 q0 -3 -2 -7q-14 -30 -48.5 -52t-75.5 -22q-23 0 -44 7q-34 11 -82.5 54t-74.5 54q-18 8 -34 8q-40 0 -59 -48q-7 -17 -33 -17q-20 0 -20 13z" />
<glyph unicode="&#xd2;" horiz-adv-x="1261" d="M60 677q0 360 123 521q53 69 135 113t160 60t162 16q132 0 251.5 -42.5t194.5 -140.5q122 -160 122 -519q0 -369 -132 -526q-77 -92 -200 -134.5t-249 -42.5q-124 0 -242.5 41.5t-193.5 130.5q-131 156 -131 523zM114 685q0 -361 125 -509q69 -82 178 -120t223 -38 q112 0 218 37t172 116q124 148 124 506q0 351 -118 505q-47 62 -119.5 101.5t-142.5 53.5t-147 14q-273 0 -397 -163q-116 -151 -116 -503zM503 1687q0 9 11 15.5t23 6.5q8 0 14 -3l252 -165q5 -4 5 -10q0 -9 -10.5 -15.5t-21.5 -6.5q-10 0 -15 4l-252 164q-6 5 -6 10z" />
<glyph unicode="&#xd3;" horiz-adv-x="1261" d="M60 677q0 360 123 521q53 69 135 113t160 60t162 16q132 0 251.5 -42.5t194.5 -140.5q122 -160 122 -519q0 -369 -132 -526q-77 -92 -200 -134.5t-249 -42.5q-124 0 -242.5 41.5t-193.5 130.5q-131 156 -131 523zM114 685q0 -361 125 -509q69 -82 178 -120t223 -38 q112 0 218 37t172 116q124 148 124 506q0 351 -118 505q-47 62 -119.5 101.5t-142.5 53.5t-147 14q-273 0 -397 -163q-116 -151 -116 -503zM486 1523q0 7 11 15l252 165q9 6 22 6q21 0 21 -13q0 -8 -11 -16l-252 -164q-10 -7 -22 -7q-21 0 -21 14z" />
<glyph unicode="&#xd4;" horiz-adv-x="1261" d="M60 677q0 360 123 521q53 69 135 113t160 60t162 16q132 0 251.5 -42.5t194.5 -140.5q122 -160 122 -519q0 -369 -132 -526q-77 -92 -200 -134.5t-249 -42.5q-124 0 -242.5 41.5t-193.5 130.5q-131 156 -131 523zM114 685q0 -361 125 -509q69 -82 178 -120t223 -38 q112 0 218 37t172 116q124 148 124 506q0 351 -118 505q-47 62 -119.5 101.5t-142.5 53.5t-147 14q-273 0 -397 -163q-116 -151 -116 -503zM356 1523q0 6 6 12l257 244q12 10 29 10q9 0 15 -6l257 -244q3 -3 3 -8q0 -9 -10 -15.5t-21 -6.5q-12 0 -18 6l-238 225l-232 -221 q-10 -10 -27 -10q-21 0 -21 14z" />
<glyph unicode="&#xd5;" horiz-adv-x="1261" d="M60 677q0 360 123 521q53 69 135 113t160 60t162 16q132 0 251.5 -42.5t194.5 -140.5q122 -160 122 -519q0 -369 -132 -526q-77 -92 -200 -134.5t-249 -42.5q-124 0 -242.5 41.5t-193.5 130.5q-131 156 -131 523zM114 685q0 -361 125 -509q69 -82 178 -120t223 -38 q112 0 218 37t172 116q124 148 124 506q0 351 -118 505q-47 62 -119.5 101.5t-142.5 53.5t-147 14q-273 0 -397 -163q-116 -151 -116 -503zM404 1580q0 3 1 5q21 52 74 72q29 11 56 11q31 0 60 -15.5t49 -35t46.5 -40t49.5 -28.5q15 -5 28 -5q35 0 55 42q3 7 13.5 11t20.5 4 q20 0 20 -11q0 -3 -2 -7q-14 -30 -48.5 -52t-75.5 -22q-23 0 -44 7q-34 11 -82.5 54t-74.5 54q-18 8 -34 8q-40 0 -59 -48q-7 -17 -33 -17q-20 0 -20 13z" />
<glyph unicode="&#xd6;" horiz-adv-x="1261" d="M60 677q0 360 123 521q53 69 135 113t160 60t162 16q132 0 251.5 -42.5t194.5 -140.5q122 -160 122 -519q0 -369 -132 -526q-77 -92 -200 -134.5t-249 -42.5q-124 0 -242.5 41.5t-193.5 130.5q-131 156 -131 523zM114 685q0 -361 125 -509q69 -82 178 -120t223 -38 q112 0 218 37t172 116q124 148 124 506q0 351 -118 505q-47 62 -119.5 101.5t-142.5 53.5t-147 14q-273 0 -397 -163q-116 -151 -116 -503zM482 1557q0 19 8.5 33.5t19.5 14.5t19.5 -14.5t8.5 -33.5t-8.5 -33.5t-19.5 -14.5t-19.5 14.5t-8.5 33.5zM742 1557q0 19 8.5 33.5 t19.5 14.5t19.5 -14.5t8.5 -33.5t-8.5 -33.5t-19.5 -14.5t-19.5 14.5t-8.5 33.5z" />
<glyph unicode="&#xd7;" horiz-adv-x="824" d="M226 367q0 6 6 12l148 148l-151 151q-3 3 -3 7q0 8 11 15.5t22 7.5t17 -6l140 -139l134 134q11 11 29 11q19 0 19 -13q0 -6 -6 -12l-148 -148l151 -151q3 -3 3 -7q0 -8 -11 -15.5t-22 -7.5t-17 6l-140 139l-134 -134q-11 -11 -29 -11q-19 0 -19 13z" />
<glyph unicode="&#xd8;" horiz-adv-x="1261" d="M37 -4q0 5 4 9l137 165q-118 159 -118 507q0 360 123 521q40 52 96 90.5t118 59t122 30t121 9.5q121 0 233 -36t188 -118l105 126q6 7 17 10.5t20 1.5q13 -3 13 -14q0 -5 -4 -9l-123 -148q119 -159 119 -515q0 -369 -132 -526q-77 -92 -200 -134.5t-249 -42.5 q-117 0 -231 38t-190 118l-119 -143q-15 -17 -37 -12q-13 3 -13 13zM114 685q0 -321 99 -473l815 980q-48 58 -119 95t-139.5 50.5t-142.5 13.5q-77 0 -145 -13.5t-137 -51.5t-115 -98q-60 -79 -88 -212.5t-28 -290.5zM238 177q69 -83 178.5 -121t223.5 -38q112 0 218 37 t172 116q124 148 124 506q0 321 -101 480z" />
<glyph unicode="&#xd9;" horiz-adv-x="1446" d="M58 1363q0 10 10.5 16.5t22.5 6.5h300q11 0 17 -5.5t3 -12.5q-7 -18 -33 -18h-121v-789q0 -292 124 -411q73 -71 155 -101.5t185 -30.5q104 0 177 26t143 94q122 118 122 407v805h-125q-11 0 -16.5 5.5t-2.5 12.5q7 18 32 18h300q21 0 21 -14q0 -9 -11 -15.5t-23 -6.5 h-121v-796q0 -143 -29.5 -250.5t-104.5 -180.5q-79 -77 -169.5 -109t-205.5 -32q-226 0 -373 143q-132 128 -132 427v798h-125q-20 0 -20 13zM564 1687q0 9 11 15.5t23 6.5q8 0 14 -3l252 -165q5 -4 5 -10q0 -9 -10.5 -15.5t-21.5 -6.5q-10 0 -15 4l-252 164q-6 5 -6 10z " />
<glyph unicode="&#xda;" horiz-adv-x="1446" d="M58 1363q0 10 10.5 16.5t22.5 6.5h300q11 0 17 -5.5t3 -12.5q-7 -18 -33 -18h-121v-789q0 -292 124 -411q73 -71 155 -101.5t185 -30.5q104 0 177 26t143 94q122 118 122 407v805h-125q-11 0 -16.5 5.5t-2.5 12.5q7 18 32 18h300q21 0 21 -14q0 -9 -11 -15.5t-23 -6.5 h-121v-796q0 -143 -29.5 -250.5t-104.5 -180.5q-79 -77 -169.5 -109t-205.5 -32q-226 0 -373 143q-132 128 -132 427v798h-125q-20 0 -20 13zM537 1523q0 7 11 15l252 165q9 6 22 6q21 0 21 -13q0 -8 -11 -16l-252 -164q-10 -7 -22 -7q-21 0 -21 14z" />
<glyph unicode="&#xdb;" horiz-adv-x="1446" d="M58 1363q0 10 10.5 16.5t22.5 6.5h300q11 0 17 -5.5t3 -12.5q-7 -18 -33 -18h-121v-789q0 -292 124 -411q73 -71 155 -101.5t185 -30.5q104 0 177 26t143 94q122 118 122 407v805h-125q-11 0 -16.5 5.5t-2.5 12.5q7 18 32 18h300q21 0 21 -14q0 -9 -11 -15.5t-23 -6.5 h-121v-796q0 -143 -29.5 -250.5t-104.5 -180.5q-79 -77 -169.5 -109t-205.5 -32q-226 0 -373 143q-132 128 -132 427v798h-125q-20 0 -20 13zM437 1523q0 6 6 12l257 244q12 10 29 10q9 0 15 -6l257 -244q3 -3 3 -8q0 -9 -10 -15.5t-21 -6.5q-12 0 -18 6l-238 225l-232 -221 q-10 -10 -27 -10q-21 0 -21 14z" />
<glyph unicode="&#xdc;" horiz-adv-x="1446" d="M58 1363q0 10 10.5 16.5t22.5 6.5h300q11 0 17 -5.5t3 -12.5q-7 -18 -33 -18h-121v-789q0 -292 124 -411q73 -71 155 -101.5t185 -30.5q104 0 177 26t143 94q122 118 122 407v805h-125q-11 0 -16.5 5.5t-2.5 12.5q7 18 32 18h300q21 0 21 -14q0 -9 -11 -15.5t-23 -6.5 h-121v-796q0 -143 -29.5 -250.5t-104.5 -180.5q-79 -77 -169.5 -109t-205.5 -32q-226 0 -373 143q-132 128 -132 427v798h-125q-20 0 -20 13zM563 1557q0 19 8.5 33.5t19.5 14.5t19.5 -14.5t8.5 -33.5t-8.5 -33.5t-19.5 -14.5t-19.5 14.5t-8.5 33.5zM823 1557q0 19 8.5 33.5 t19.5 14.5t19.5 -14.5t8.5 -33.5t-8.5 -33.5t-19.5 -14.5t-19.5 14.5t-8.5 33.5z" />
<glyph unicode="&#xdd;" horiz-adv-x="1445" d="M67 1363q0 10 10.5 16.5t22.5 6.5h300q11 0 17 -5.5t3 -12.5q-7 -18 -33 -18h-100l425 -614l436 614h-125q-11 0 -16.5 5.5t-2.5 12.5q7 18 32 18h300q21 0 21 -14q0 -9 -11 -15.5t-23 -6.5h-121l-466 -656v-676h129q11 0 17 -5.5t3 -12.5q-7 -18 -33 -18h-300 q-11 0 -16.5 5.5t-2.5 12.5q7 18 32 18h117v668l-460 664h-135q-20 0 -20 13zM694 1523q0 7 11 15l252 165q9 6 22 6q21 0 21 -13q0 -8 -11 -16l-252 -164q-10 -7 -22 -7q-21 0 -21 14z" />
<glyph unicode="&#xde;" horiz-adv-x="1096" d="M55 -5q0 10 11 16.5t23 6.5h112v1332h-125q-11 0 -16.5 5.5t-2.5 12.5q7 18 33 18h300q11 0 16.5 -5.5t2.5 -12.5q-7 -18 -33 -18h-121v-164h165q146 0 264 -50t187.5 -146.5t69.5 -221.5q0 -132 -67 -244.5t-192 -181.5t-281 -69q-73 0 -146 16v-271h134q11 0 16.5 -5.5 t2.5 -12.5q-7 -18 -33 -18h-300q-20 0 -20 13zM255 330q77 -21 157 -21q44 0 86 6q167 27 278 150t111 294q0 119 -65.5 209t-174 136t-241.5 46h-151v-820z" />
<glyph unicode="&#xdf;" horiz-adv-x="994" d="M75 -5q0 10 11 16.5t23 6.5h95l1 1111q0 63 22.5 119.5t75.5 97t128 40.5q53 0 107 -26q122 -58 122 -205q0 -122 -86 -210q-22 -22 -60 -49.5t-61.5 -45.5t-42.5 -52t-19 -77q0 -68 40 -117q28 -35 89.5 -63.5t124 -51t122.5 -53t98 -85t38 -131.5q0 -104 -80 -171 t-203 -67q-104 0 -183 46.5t-134 117.5q-2 3 -2 7q0 8 11.5 15t23.5 7t17 -7q50 -66 122.5 -108t158.5 -42q94 0 154.5 51t60.5 143q0 71 -35 119.5t-92 75.5t-117.5 47.5t-123.5 52.5t-98 75q-46 55 -46 131q0 49 23 90t51 63.5t66 50t53 42.5q76 78 76 188q0 133 -106 183 q-42 20 -83 20q-69 0 -113.5 -61.5t-44.5 -151.5l-1 -1133q0 -9 -11.5 -15.5t-22.5 -6.5h-129q-20 0 -20 13z" />
<glyph unicode="&#xe0;" horiz-adv-x="989" d="M73 184q0 95 43 178t129.5 137t199.5 54q90 0 169.5 -38t128.5 -103v139q0 143 -103.5 241t-241.5 98q-68 0 -143 -44t-104 -102q-9 -19 -34 -17q-10 1 -15 6.5t-1 13.5q36 70 126.5 124.5t183.5 54.5q162 0 274 -106.5t112 -259.5l1 -542h111q20 0 20 -13 q0 -10 -11 -16.5t-23 -6.5h-131q-20 0 -20 14v64q-130 -78 -299 -78q-68 0 -127.5 8.5t-118 29t-92.5 62.5t-34 102zM127 193q0 -175 332 -175q169 0 285 86v163q-12 107 -106 178.5t-206 71.5q-133 0 -219 -93.5t-86 -230.5zM284 1232q0 9 11 15.5t23 6.5q8 0 14 -3 l252 -165q5 -4 5 -10q0 -9 -10.5 -15.5t-21.5 -6.5q-10 0 -15 4l-252 164q-6 4 -6 10z" />
<glyph unicode="&#xe1;" horiz-adv-x="989" d="M73 184q0 95 43 178t129.5 137t199.5 54q90 0 169.5 -38t128.5 -103v139q0 143 -103.5 241t-241.5 98q-68 0 -143 -44t-104 -102q-9 -19 -34 -17q-10 1 -15 6.5t-1 13.5q36 70 126.5 124.5t183.5 54.5q162 0 274 -106.5t112 -259.5l1 -542h111q20 0 20 -13 q0 -10 -11 -16.5t-23 -6.5h-131q-20 0 -20 14v64q-130 -78 -299 -78q-68 0 -127.5 8.5t-118 29t-92.5 62.5t-34 102zM127 193q0 -175 332 -175q169 0 285 86v163q-12 107 -106 178.5t-206 71.5q-133 0 -219 -93.5t-86 -230.5zM247 1068q0 7 11 15l252 165q9 6 22 6 q21 0 21 -13q0 -8 -11 -16l-252 -164q-10 -7 -22 -7q-21 0 -21 14z" />
<glyph unicode="&#xe2;" horiz-adv-x="989" d="M73 184q0 95 43 178t129.5 137t199.5 54q90 0 169.5 -38t128.5 -103v139q0 143 -103.5 241t-241.5 98q-68 0 -143 -44t-104 -102q-9 -19 -34 -17q-10 1 -15 6.5t-1 13.5q36 70 126.5 124.5t183.5 54.5q162 0 274 -106.5t112 -259.5l1 -542h111q20 0 20 -13 q0 -10 -11 -16.5t-23 -6.5h-131q-20 0 -20 14v64q-130 -78 -299 -78q-68 0 -127.5 8.5t-118 29t-92.5 62.5t-34 102zM127 193q0 -175 332 -175q169 0 285 86v163q-12 107 -106 178.5t-206 71.5q-133 0 -219 -93.5t-86 -230.5zM127 1068q0 6 6 12l257 244q12 10 29 10 q9 0 15 -6l257 -244q3 -3 3 -8q0 -9 -10 -15.5t-21 -6.5q-12 0 -18 6l-238 225l-232 -221q-10 -10 -27 -10q-21 0 -21 14z" />
<glyph unicode="&#xe3;" horiz-adv-x="989" d="M73 184q0 95 43 178t129.5 137t199.5 54q90 0 169.5 -38t128.5 -103v139q0 143 -103.5 241t-241.5 98q-68 0 -143 -44t-104 -102q-9 -19 -34 -17q-10 1 -15 6.5t-1 13.5q36 70 126.5 124.5t183.5 54.5q162 0 274 -106.5t112 -259.5l1 -542h111q20 0 20 -13 q0 -10 -11 -16.5t-23 -6.5h-131q-20 0 -20 14v64q-130 -78 -299 -78q-68 0 -127.5 8.5t-118 29t-92.5 62.5t-34 102zM127 193q0 -175 332 -175q169 0 285 86v163q-12 107 -106 178.5t-206 71.5q-133 0 -219 -93.5t-86 -230.5zM175 1125q0 3 1 5q21 52 74 72q29 11 56 11 q31 0 60 -15.5t49 -35t46.5 -40t49.5 -28.5q15 -5 28 -5q35 0 55 42q3 7 13.5 11t20.5 4q20 0 20 -11q0 -3 -2 -7q-14 -30 -48.5 -52t-75.5 -22q-23 0 -44 7q-34 11 -82.5 54t-74.5 54q-18 8 -34 8q-40 0 -59 -48q-7 -17 -33 -17q-20 0 -20 13z" />
<glyph unicode="&#xe4;" horiz-adv-x="989" d="M73 184q0 95 43 178t129.5 137t199.5 54q90 0 169.5 -38t128.5 -103v139q0 143 -103.5 241t-241.5 98q-68 0 -143 -44t-104 -102q-9 -19 -34 -17q-10 1 -15 6.5t-1 13.5q36 70 126.5 124.5t183.5 54.5q162 0 274 -106.5t112 -259.5l1 -542h111q20 0 20 -13 q0 -10 -11 -16.5t-23 -6.5h-131q-20 0 -20 14v64q-130 -78 -299 -78q-68 0 -127.5 8.5t-118 29t-92.5 62.5t-34 102zM127 193q0 -175 332 -175q169 0 285 86v163q-12 107 -106 178.5t-206 71.5q-133 0 -219 -93.5t-86 -230.5zM253 1102q0 19 8.5 33.5t19.5 14.5t19.5 -14.5 t8.5 -33.5t-8.5 -33.5t-19.5 -14.5t-19.5 14.5t-8.5 33.5zM513 1102q0 19 8.5 33.5t19.5 14.5t19.5 -14.5t8.5 -33.5t-8.5 -33.5t-19.5 -14.5t-19.5 14.5t-8.5 33.5z" />
<glyph unicode="&#xe5;" horiz-adv-x="989" d="M73 184q0 95 43 178t129.5 137t199.5 54q90 0 169.5 -38t128.5 -103v139q0 143 -103.5 241t-241.5 98q-68 0 -143 -44t-104 -102q-9 -19 -34 -17q-10 1 -15 6.5t-1 13.5q36 70 126.5 124.5t183.5 54.5q162 0 274 -106.5t112 -259.5l1 -542h111q20 0 20 -13 q0 -10 -11 -16.5t-23 -6.5h-131q-20 0 -20 14v64q-130 -78 -299 -78q-68 0 -127.5 8.5t-118 29t-92.5 62.5t-34 102zM127 193q0 -175 332 -175q169 0 285 86v163q-12 107 -106 178.5t-206 71.5q-133 0 -219 -93.5t-86 -230.5zM272 1180q0 57 42.5 95.5t103.5 38.5 q59 0 95.5 -37t36.5 -88q0 -57 -42 -96t-104 -39q-59 0 -95.5 37t-36.5 89zM326 1189q0 -41 29 -70t63 -29q30 0 54 25.5t24 64.5q0 42 -29 70t-63 28q-29 0 -53.5 -25.5t-24.5 -63.5z" />
<glyph unicode="&#xe6;" horiz-adv-x="1505" d="M25 184q0 70 25.5 136t72 118t118 83.5t156.5 31.5q58 0 105 -16t82.5 -46t60.5 -62t50 -77v199q0 94 -48.5 173t-127.5 122.5t-169 43.5q-68 0 -143 -44t-104 -102q-4 -8 -14 -13t-20 -4t-15 6.5t-1 13.5q36 70 126.5 124.5t183.5 54.5q123 0 219.5 -63.5t139.5 -167.5 q36 92 109 155t164 78q30 4 45 4q96 -1 170 -31t119.5 -84t69 -124.5t25.5 -156.5v-4q-2 -8 -12.5 -13.5t-21.5 -5.5h-641v-266q22 -43 39 -71.5t43.5 -61.5t54.5 -51.5t68 -31.5t87 -13q100 0 157.5 22.5t124.5 77.5q8 6 19 8t19 -2t8 -11t-8 -13q-74 -60 -148 -89 t-186 -29q-97 0 -162.5 36t-114.5 102v-116q0 -8 -11.5 -14.5t-24.5 -6.5q-18 0 -18 13v64q-130 -78 -299 -78q-68 0 -127.5 8.5t-118 29t-92.5 62.5t-34 102zM79 193q0 -175 332 -175q169 0 285 86v112q-11 20 -29 54.5t-28.5 55t-28.5 50t-32 47t-36 37.5t-44 31 t-51.5 18.5t-62.5 7.5q-133 0 -219 -93.5t-86 -230.5zM749 549h620q-8 160 -96 253t-247 94q-21 0 -31 -2q-94 -15 -170 -110t-76 -224v-11z" />
<glyph unicode="&#xe7;" horiz-adv-x="2048" d="M205 450q0 128 48 238.5t135 177.5t192 67q223 0 328 -138q2 -3 2 -6q0 -7 -5 -12l-93 -94q-7 -7 -18 -9.5t-20 0.5t-10.5 9.5t5.5 13.5l84 84q-49 61 -117.5 88.5t-168.5 27.5q-80 0 -157 -64.5t-118 -177.5q-33 -91 -33 -196q0 -96 28.5 -180t74 -140.5t102.5 -89 t115 -32.5h2q99 0 156.5 23t125.5 78q8 6 19 8.5t18.5 -1.5t7.5 -11.5t-7 -13.5q-69 -56 -138 -85.5t-171 -32.5l-35 -79q10 2 19 2q72 0 102 -63q10 -23 10 -47q0 -53 -45 -92t-111 -39q-64 0 -111 40q-4 4 -4 9q0 8 11.5 15t23.5 7q10 0 15 -5q35 -30 78 -30q36 0 63.5 24 t27.5 59q0 20 -10 41q-22 45 -63 45q-8 0 -27 -9t-28 -9q-7 0 -13 4q-9 6 -5 15l50 113q-142 13 -238.5 145t-96.5 322z" />
<glyph unicode="&#xe8;" horiz-adv-x="892" d="M75 450q0 187 93.5 321t235.5 157q30 4 46 4q127 -1 214.5 -54t127.5 -139.5t42 -202.5v-4q-2 -8 -12.5 -13.5t-21.5 -5.5h-669q-2 -18 -2 -55q0 -96 28.5 -180t74.5 -140t103.5 -88t115.5 -32q100 0 157.5 22.5t124.5 77.5q19 15 38 6q7 -4 7 -11t-7 -13 q-74 -60 -148 -89t-186 -29q-151 0 -256.5 134t-105.5 334zM136 549h643q-8 160 -96 253t-247 94q-13 0 -19 -1q-95 -9 -177 -103.5t-104 -242.5zM323 1232q0 9 11 15.5t23 6.5q8 0 14 -3l252 -165q5 -4 5 -10q0 -9 -10.5 -15.5t-21.5 -6.5q-10 0 -15 4l-252 164q-6 4 -6 10 z" />
<glyph unicode="&#xe9;" horiz-adv-x="892" d="M75 450q0 187 93.5 321t235.5 157q30 4 46 4q127 -1 214.5 -54t127.5 -139.5t42 -202.5v-4q-2 -8 -12.5 -13.5t-21.5 -5.5h-669q-2 -18 -2 -55q0 -96 28.5 -180t74.5 -140t103.5 -88t115.5 -32q100 0 157.5 22.5t124.5 77.5q19 15 38 6q7 -4 7 -11t-7 -13 q-74 -60 -148 -89t-186 -29q-151 0 -256.5 134t-105.5 334zM136 549h643q-8 160 -96 253t-247 94q-13 0 -19 -1q-95 -9 -177 -103.5t-104 -242.5zM276 1068q0 7 11 15l252 165q9 6 22 6q21 0 21 -13q0 -8 -11 -16l-252 -164q-10 -7 -22 -7q-21 0 -21 14z" />
<glyph unicode="&#xea;" horiz-adv-x="892" d="M75 450q0 187 93.5 321t235.5 157q30 4 46 4q127 -1 214.5 -54t127.5 -139.5t42 -202.5v-4q-2 -8 -12.5 -13.5t-21.5 -5.5h-669q-2 -18 -2 -55q0 -96 28.5 -180t74.5 -140t103.5 -88t115.5 -32q100 0 157.5 22.5t124.5 77.5q19 15 38 6q7 -4 7 -11t-7 -13 q-74 -60 -148 -89t-186 -29q-151 0 -256.5 134t-105.5 334zM136 549h643q-8 160 -96 253t-247 94q-13 0 -19 -1q-95 -9 -177 -103.5t-104 -242.5zM166 1068q0 6 6 12l257 244q12 10 29 10q9 0 15 -6l257 -244q3 -3 3 -8q0 -9 -10 -15.5t-21 -6.5q-12 0 -18 6l-238 225 l-232 -221q-10 -10 -27 -10q-21 0 -21 14z" />
<glyph unicode="&#xeb;" horiz-adv-x="892" d="M75 450q0 187 93.5 321t235.5 157q30 4 46 4q127 -1 214.5 -54t127.5 -139.5t42 -202.5v-4q-2 -8 -12.5 -13.5t-21.5 -5.5h-669q-2 -18 -2 -55q0 -96 28.5 -180t74.5 -140t103.5 -88t115.5 -32q100 0 157.5 22.5t124.5 77.5q19 15 38 6q7 -4 7 -11t-7 -13 q-74 -60 -148 -89t-186 -29q-151 0 -256.5 134t-105.5 334zM136 549h643q-8 160 -96 253t-247 94q-13 0 -19 -1q-95 -9 -177 -103.5t-104 -242.5zM292 1102q0 19 8.5 33.5t19.5 14.5t19.5 -14.5t8.5 -33.5t-8.5 -33.5t-19.5 -14.5t-19.5 14.5t-8.5 33.5zM552 1102 q0 19 8.5 33.5t19.5 14.5t19.5 -14.5t8.5 -33.5t-8.5 -33.5t-19.5 -14.5t-19.5 14.5t-8.5 33.5z" />
<glyph unicode="&#xec;" horiz-adv-x="470" d="M75 1232q0 9 11 15.5t23 6.5q8 0 14 -3l252 -165q5 -4 5 -10q0 -9 -10.5 -15.5t-21.5 -6.5q-10 0 -15 4l-252 164q-6 4 -6 10zM90 909q0 10 10.5 16.5t22.5 6.5h135q9 0 15 -4.5t6 -9.5l1 -900h110q21 0 21 -14q0 -10 -11 -16t-23 -6h-260q-11 0 -16.5 5.5t-2.5 12.5 q7 18 32 18h96l-1 878h-115q-20 0 -20 13z" />
<glyph unicode="&#xed;" horiz-adv-x="470" d="M88 1068q0 7 11 15l252 165q9 6 22 6q21 0 21 -13q0 -8 -11 -16l-252 -164q-10 -7 -22 -7q-21 0 -21 14zM90 909q0 10 10.5 16.5t22.5 6.5h135q9 0 15 -4.5t6 -9.5l1 -900h110q21 0 21 -14q0 -10 -11 -16t-23 -6h-260q-11 0 -16.5 5.5t-2.5 12.5q7 18 32 18h96l-1 878 h-115q-20 0 -20 13z" />
<glyph unicode="&#xee;" horiz-adv-x="470" d="M-32 1068q0 6 6 12l257 244q12 10 29 10q9 0 15 -6l257 -244q3 -3 3 -8q0 -9 -10 -15.5t-21 -6.5q-12 0 -18 6l-238 225l-232 -221q-10 -10 -27 -10q-21 0 -21 14zM90 909q0 10 10.5 16.5t22.5 6.5h135q9 0 15 -4.5t6 -9.5l1 -900h110q21 0 21 -14q0 -10 -11 -16t-23 -6 h-260q-11 0 -16.5 5.5t-2.5 12.5q7 18 32 18h96l-1 878h-115q-20 0 -20 13z" />
<glyph unicode="&#xef;" horiz-adv-x="470" d="M90 909q0 10 10.5 16.5t22.5 6.5h135q9 0 15 -4.5t6 -9.5l1 -900h110q21 0 21 -14q0 -10 -11 -16t-23 -6h-260q-11 0 -16.5 5.5t-2.5 12.5q7 18 32 18h96l-1 878h-115q-20 0 -20 13zM94 1102q0 19 8.5 33.5t19.5 14.5t19.5 -14.5t8.5 -33.5t-8.5 -33.5t-19.5 -14.5 t-19.5 14.5t-8.5 33.5zM354 1102q0 19 8.5 33.5t19.5 14.5t19.5 -14.5t8.5 -33.5t-8.5 -33.5t-19.5 -14.5t-19.5 14.5t-8.5 33.5z" />
<glyph unicode="&#xf0;" horiz-adv-x="984" d="M67 450q0 99 33.5 188.5t90 153.5t132.5 102t158 38q99 0 188 -55.5t146 -150.5q-32 217 -132 352q-70 96 -166 165l-217 -107q-9 -4 -18 -4t-15 4t-6 10q0 10 15 17l208 102q-137 85 -279 85q-11 0 -16.5 5.5t-2.5 12.5t12.5 12.5t20.5 5.5q165 0 315 -96l186 91 q9 5 18 5t15 -4t6 -10q0 -10 -15 -17l-177 -88q93 -69 166 -167q79 -107 116.5 -262.5t37.5 -378.5q0 -99 -34.5 -188t-92 -152t-134 -100t-158.5 -37q-79 0 -152.5 35.5t-128 97t-87.5 149.5t-33 186zM121 459q0 -95 32.5 -179.5t84 -140.5t115.5 -88.5t128 -32.5 q96 0 187.5 70t135.5 191q29 78 29 171q0 95 -33 180.5t-85.5 142.5t-117.5 90t-129 33q-94 0 -183 -70t-133 -191q-31 -86 -31 -176z" />
<glyph unicode="&#xf1;" horiz-adv-x="1094" d="M85 909q0 10 10.5 16.5t22.5 6.5h135q9 0 15 -4.5t6 -9.5v-135q49 66 129 107.5t165 41.5q71 0 131.5 -20.5t109.5 -63.5t76.5 -117t27.5 -172l1 -541h98q21 0 21 -14q0 -9 -11 -15.5t-23 -6.5h-244q-11 0 -17 5.5t-3 12.5q7 18 33 18h92l-1 532q0 76 -17.5 136.5 t-46.5 99t-69 64t-82.5 36t-89.5 10.5q-81 0 -159 -52.5t-107 -130.5q-12 -31 -12 -66q0 -2 -2 -6l1 -623h102q11 0 17 -5.5t3 -12.5q-7 -18 -33 -18h-244q-11 0 -17 5.5t-3 12.5q7 18 33 18h88l-1 878h-115q-20 0 -20 13zM323 1125q0 3 1 5q21 52 74 72q29 11 56 11 q31 0 60 -15.5t49 -35t46.5 -40t49.5 -28.5q15 -5 28 -5q35 0 55 42q3 7 13.5 11t20.5 4q20 0 20 -11q0 -3 -2 -7q-14 -30 -48.5 -52t-75.5 -22q-23 0 -44 7q-34 11 -82.5 54t-74.5 54q-18 8 -34 8q-40 0 -59 -48q-7 -17 -33 -17q-20 0 -20 13z" />
<glyph unicode="&#xf2;" d="M70 450q0 200 122.5 341t290.5 141q163 0 285 -137.5t122 -335.5q0 -131 -58.5 -241.5t-155 -173t-205.5 -62.5q-163 0 -282 135t-119 333zM124 459q0 -95 32.5 -179.5t84 -140.5t115.5 -88.5t128 -32.5q96 0 187 70t135 191q30 81 30 171q0 95 -33.5 180.5t-86 142.5 t-117.5 90t-129 33q-94 0 -183 -70t-133 -191q-30 -84 -30 -176zM336 1232q0 9 11 15.5t23 6.5q8 0 14 -3l252 -165q5 -4 5 -10q0 -9 -10.5 -15.5t-21.5 -6.5q-10 0 -15 4l-252 164q-6 4 -6 10z" />
<glyph unicode="&#xf3;" d="M70 450q0 200 122.5 341t290.5 141q163 0 285 -137.5t122 -335.5q0 -131 -58.5 -241.5t-155 -173t-205.5 -62.5q-163 0 -282 135t-119 333zM124 459q0 -95 32.5 -179.5t84 -140.5t115.5 -88.5t128 -32.5q96 0 187 70t135 191q30 81 30 171q0 95 -33.5 180.5t-86 142.5 t-117.5 90t-129 33q-94 0 -183 -70t-133 -191q-30 -84 -30 -176zM319 1065q0 7 11 15l252 165q9 6 22 6q21 0 21 -13q0 -8 -11 -16l-252 -164q-10 -7 -22 -7q-21 0 -21 14z" />
<glyph unicode="&#xf4;" d="M70 450q0 200 122.5 341t290.5 141q163 0 285 -137.5t122 -335.5q0 -131 -58.5 -241.5t-155 -173t-205.5 -62.5q-163 0 -282 135t-119 333zM124 459q0 -95 32.5 -179.5t84 -140.5t115.5 -88.5t128 -32.5q96 0 187 70t135 191q30 81 30 171q0 95 -33.5 180.5t-86 142.5 t-117.5 90t-129 33q-94 0 -183 -70t-133 -191q-30 -84 -30 -176zM199 1068q0 6 6 12l257 244q12 10 29 10q9 0 15 -6l257 -244q3 -3 3 -8q0 -9 -10 -15.5t-21 -6.5q-12 0 -18 6l-238 225l-232 -221q-10 -10 -27 -10q-21 0 -21 14z" />
<glyph unicode="&#xf5;" d="M70 450q0 200 122.5 341t290.5 141q163 0 285 -137.5t122 -335.5q0 -131 -58.5 -241.5t-155 -173t-205.5 -62.5q-163 0 -282 135t-119 333zM124 459q0 -95 32.5 -179.5t84 -140.5t115.5 -88.5t128 -32.5q96 0 187 70t135 191q30 81 30 171q0 95 -33.5 180.5t-86 142.5 t-117.5 90t-129 33q-94 0 -183 -70t-133 -191q-30 -84 -30 -176zM247 1125q0 3 1 5q21 52 74 72q29 11 56 11q31 0 60 -15.5t49 -35t46.5 -40t49.5 -28.5q15 -5 28 -5q35 0 55 42q3 7 13.5 11t20.5 4q20 0 20 -11q0 -3 -2 -7q-14 -30 -48.5 -52t-75.5 -22q-23 0 -44 7 q-34 11 -82.5 54t-74.5 54q-18 8 -34 8q-40 0 -59 -48q-7 -17 -33 -17q-20 0 -20 13z" />
<glyph unicode="&#xf6;" d="M70 450q0 200 122.5 341t290.5 141q163 0 285 -137.5t122 -335.5q0 -131 -58.5 -241.5t-155 -173t-205.5 -62.5q-163 0 -282 135t-119 333zM124 459q0 -95 32.5 -179.5t84 -140.5t115.5 -88.5t128 -32.5q96 0 187 70t135 191q30 81 30 171q0 95 -33.5 180.5t-86 142.5 t-117.5 90t-129 33q-94 0 -183 -70t-133 -191q-30 -84 -30 -176zM325 1102q0 19 8.5 33.5t19.5 14.5t19.5 -14.5t8.5 -33.5t-8.5 -33.5t-19.5 -14.5t-19.5 14.5t-8.5 33.5zM585 1102q0 19 8.5 33.5t19.5 14.5t19.5 -14.5t8.5 -33.5t-8.5 -33.5t-19.5 -14.5t-19.5 14.5 t-8.5 33.5z" />
<glyph unicode="&#xf7;" horiz-adv-x="826" d="M160 526q0 10 11 16.5t23 6.5h450q20 0 20 -13q0 -10 -11 -16.5t-23 -6.5h-450q-20 0 -20 13zM351 307q0 14 5 29q14 41 56 41q49 0 49 -61q0 -15 -5 -30q-14 -41 -57 -41q-48 0 -48 62zM367 735q0 14 5 29q14 41 56 41q49 0 49 -61q0 -15 -5 -30q-14 -41 -57 -41 q-48 0 -48 62z" />
<glyph unicode="&#xf8;" d="M20 -15q0 5 4 10l140 154q-94 130 -94 301q0 99 33.5 188.5t89.5 153.5t132 102t158 38q77 0 149 -34t129 -96l127 139q11 12 29 12q5 0 8 -1q11 -3 11 -13q0 -5 -4 -10l-144 -158q102 -133 102 -312q0 -98 -34.5 -187.5t-92 -152.5t-134.5 -100t-158 -37q-79 0 -152 35 t-129 99l-122 -133q-11 -12 -29 -12q-5 0 -8 1q-11 3 -11 13zM124 459q0 -150 78 -269l523 573q-53 63 -121 98t-134 35q-94 0 -183 -70t-133 -191q-30 -84 -30 -176zM226 156q52 -65 120.5 -101.5t137.5 -36.5q96 0 187 70t135 191q30 81 30 171q0 158 -86 280z" />
<glyph unicode="&#xf9;" horiz-adv-x="1121" d="M57 909q0 10 10.5 16.5t22.5 6.5h135q9 0 15 -4.5t6 -9.5v-582q0 -135 85.5 -226.5t214.5 -91.5q33 0 64.5 3t51 5.5t50.5 10.5t39.5 10.5t43 14.5t38.5 13l-1 821h-115q-11 0 -16.5 5.5t-2.5 12.5q7 18 32 18h270q20 0 20 -13q0 -10 -10.5 -16.5t-22.5 -6.5h-101l1 -817 q7 -7 0 -16v-44l111 3q22 0 22 -14v-1q-1 -1 -1 -2q-6 -19 -31 -19l-133 -4q-22 0 -22 14v43q-52 -18 -82 -27.5t-91.5 -19.5t-126.5 -10q-154 0 -247.5 100.5t-93.5 244.5v569h-115q-20 0 -20 13zM358 1232q0 9 11 15.5t23 6.5q8 0 14 -3l252 -165q5 -4 5 -10 q0 -9 -10.5 -15.5t-21.5 -6.5q-10 0 -15 4l-252 164q-6 4 -6 10z" />
<glyph unicode="&#xfa;" horiz-adv-x="1121" d="M57 909q0 10 10.5 16.5t22.5 6.5h135q9 0 15 -4.5t6 -9.5v-582q0 -135 85.5 -226.5t214.5 -91.5q33 0 64.5 3t51 5.5t50.5 10.5t39.5 10.5t43 14.5t38.5 13l-1 821h-115q-11 0 -16.5 5.5t-2.5 12.5q7 18 32 18h270q20 0 20 -13q0 -10 -10.5 -16.5t-22.5 -6.5h-101l1 -817 q7 -7 0 -16v-44l111 3q22 0 22 -14v-1q-1 -1 -1 -2q-6 -19 -31 -19l-133 -4q-22 0 -22 14v43q-52 -18 -82 -27.5t-91.5 -19.5t-126.5 -10q-154 0 -247.5 100.5t-93.5 244.5v569h-115q-20 0 -20 13zM381 1068q0 7 11 15l252 165q9 6 22 6q21 0 21 -13q0 -8 -11 -16l-252 -164 q-10 -7 -22 -7q-21 0 -21 14z" />
<glyph unicode="&#xfb;" horiz-adv-x="1121" d="M57 909q0 10 10.5 16.5t22.5 6.5h135q9 0 15 -4.5t6 -9.5v-582q0 -135 85.5 -226.5t214.5 -91.5q33 0 64.5 3t51 5.5t50.5 10.5t39.5 10.5t43 14.5t38.5 13l-1 821h-115q-11 0 -16.5 5.5t-2.5 12.5q7 18 32 18h270q20 0 20 -13q0 -10 -10.5 -16.5t-22.5 -6.5h-101l1 -817 q7 -7 0 -16v-44l111 3q22 0 22 -14v-1q-1 -1 -1 -2q-6 -19 -31 -19l-133 -4q-22 0 -22 14v43q-52 -18 -82 -27.5t-91.5 -19.5t-126.5 -10q-154 0 -247.5 100.5t-93.5 244.5v569h-115q-20 0 -20 13zM261 1068q0 6 6 12l257 244q12 10 29 10q9 0 15 -6l257 -244q3 -3 3 -8 q0 -9 -10 -15.5t-21 -6.5q-12 0 -18 6l-238 225l-232 -221q-10 -10 -27 -10q-21 0 -21 14z" />
<glyph unicode="&#xfc;" horiz-adv-x="1121" d="M57 909q0 10 10.5 16.5t22.5 6.5h135q9 0 15 -4.5t6 -9.5v-582q0 -135 85.5 -226.5t214.5 -91.5q33 0 64.5 3t51 5.5t50.5 10.5t39.5 10.5t43 14.5t38.5 13l-1 821h-115q-11 0 -16.5 5.5t-2.5 12.5q7 18 32 18h270q20 0 20 -13q0 -10 -10.5 -16.5t-22.5 -6.5h-101l1 -817 q7 -7 0 -16v-44l111 3q22 0 22 -14v-1q-1 -1 -1 -2q-6 -19 -31 -19l-133 -4q-22 0 -22 14v43q-52 -18 -82 -27.5t-91.5 -19.5t-126.5 -10q-154 0 -247.5 100.5t-93.5 244.5v569h-115q-20 0 -20 13zM387 1102q0 19 8.5 33.5t19.5 14.5t19.5 -14.5t8.5 -33.5t-8.5 -33.5 t-19.5 -14.5t-19.5 14.5t-8.5 33.5zM647 1102q0 19 8.5 33.5t19.5 14.5t19.5 -14.5t8.5 -33.5t-8.5 -33.5t-19.5 -14.5t-19.5 14.5t-8.5 33.5z" />
<glyph unicode="&#xfd;" horiz-adv-x="1190" d="M53 909q0 10 10.5 16.5t22.5 6.5h244q11 0 17 -5.5t3 -12.5q-7 -18 -33 -18h-77q9 -78 65.5 -202t142 -290.5t129.5 -275.5q180 327 239 453q99 209 112 315h-95q-11 0 -16.5 5.5t-2.5 12.5q7 18 32 18h244q21 0 21 -14q0 -9 -11 -15.5t-23 -6.5h-96q-8 -59 -36 -138.5 t-79 -183t-86 -170.5t-102 -188t-82 -148q-21 -38 -67 -119.5t-73 -129.5t-58.5 -108t-49.5 -99h92q11 0 17 -5.5t3 -12.5q-7 -18 -33 -18h-112q-3 -1 -9 -1q-1 0 -3 0.5t-3 0.5h-117q-11 0 -16.5 5.5t-2.5 12.5q7 18 32 18h100q17 39 48.5 98.5t59 108.5t72 128t66.5 119 q-36 97 -100.5 228.5t-116 228t-93 201t-46.5 172.5h-113q-20 0 -20 13zM564 1068q0 7 11 15l252 165q9 6 22 6q21 0 21 -13q0 -8 -11 -16l-252 -164q-10 -7 -22 -7q-21 0 -21 14z" />
<glyph unicode="&#xfe;" horiz-adv-x="1048" d="M56 1347q0 10 10.5 16.5t22.5 6.5h135q21 0 21 -13v-595q52 78 140.5 124t183.5 46q163 0 284.5 -137.5t121.5 -335.5q0 -199 -125 -338t-294 -139q-91 0 -175.5 52t-135.5 138l1 -561h110q11 0 17 -5.5t3 -12.5q-7 -18 -33 -18h-260q-11 0 -16.5 5.5t-2.5 12.5 q7 18 32 18h96l-1 1723h-115q-20 0 -20 13zM245 350q8 -92 60 -170t123 -120t141 -42q96 0 187 70t135 191q30 81 30 171q0 95 -33 180.5t-85.5 142.5t-117.5 90t-129 33q-74 0 -143.5 -34.5t-118 -106t-48.5 -164.5q0 -3 -1 -5v-236z" />
<glyph unicode="&#xff;" horiz-adv-x="1190" d="M53 909q0 10 10.5 16.5t22.5 6.5h244q11 0 17 -5.5t3 -12.5q-7 -18 -33 -18h-77q9 -78 65.5 -202t142 -290.5t129.5 -275.5q180 327 239 453q99 209 112 315h-95q-11 0 -16.5 5.5t-2.5 12.5q7 18 32 18h244q21 0 21 -14q0 -9 -11 -15.5t-23 -6.5h-96q-8 -59 -36 -138.5 t-79 -183t-86 -170.5t-102 -188t-82 -148q-21 -38 -67 -119.5t-73 -129.5t-58.5 -108t-49.5 -99h92q11 0 17 -5.5t3 -12.5q-7 -18 -33 -18h-112q-3 -1 -9 -1q-1 0 -3 0.5t-3 0.5h-117q-11 0 -16.5 5.5t-2.5 12.5q7 18 32 18h100q17 39 48.5 98.5t59 108.5t72 128t66.5 119 q-36 97 -100.5 228.5t-116 228t-93 201t-46.5 172.5h-113q-20 0 -20 13zM430 1102q0 19 8.5 33.5t19.5 14.5t19.5 -14.5t8.5 -33.5t-8.5 -33.5t-19.5 -14.5t-19.5 14.5t-8.5 33.5zM690 1102q0 19 8.5 33.5t19.5 14.5t19.5 -14.5t8.5 -33.5t-8.5 -33.5t-19.5 -14.5 t-19.5 14.5t-8.5 33.5z" />
<glyph unicode="&#x152;" horiz-adv-x="1632" d="M195 677q0 358 124 521q40 52 96 90.5t118 59t122 30t121 9.5h36q71 0 284 -0.5t253 -0.5q8 0 14 -4t6 -10v-134q0 -8 -11.5 -14.5t-24.5 -6.5q-18 0 -18 13v120q-42 0 -210 0.5t-243 0.5q67 -61 104.5 -224.5t42.5 -371.5h299q11 0 16.5 -5.5t2.5 -12.5t-12.5 -12.5 t-20.5 -5.5h-284v-16q0 -231 -42 -422.5t-119 -262.5h420l164 201q15 17 37 12q13 -3 13 -13q0 -4 -4 -9l-174 -214q-11 -13 -30 -13h-514q-291 0 -435 172q-131 156 -131 523zM249 685q0 -361 125 -509q132 -158 401 -158q20 0 48.5 33.5t53.5 101.5q36 98 54 238.5 t18 294.5q0 128 -12.5 246t-35.5 211.5t-59.5 150t-80.5 56.5q-5 0 -8 1q-117 -2 -220 -40t-168 -123q-60 -79 -88 -212.5t-28 -290.5z" />
<glyph unicode="&#x153;" horiz-adv-x="2048" d="M217 450q0 99 33.5 188.5t90 153.5t132.5 102t158 38q184 0 248 -223q12 48 31.5 86.5t48 70t69.5 49t92 17.5q96 -1 170 -31t119.5 -84t69 -124.5t25.5 -156.5q0 -9 -10.5 -16t-22.5 -7l-561 -1q0 -67 9 -159q16 -155 66 -245t136 -90q100 0 157.5 22.5t124.5 77.5 q8 6 19 8t18.5 -2t7.5 -11t-7 -13q-74 -60 -148 -89t-186 -29q-50 0 -88.5 18.5t-64 53t-42.5 76t-29 95.5q-14 -51 -35.5 -92.5t-53 -76.5t-76.5 -54.5t-100 -19.5q-79 0 -152.5 35.5t-128 97t-87.5 149.5t-33 186zM271 459q0 -95 32.5 -179.5t84 -140.5t115.5 -88.5 t128 -32.5q60 0 105 37.5t70.5 100.5t37.5 136.5t12 155.5q0 72 -9 141q-20 145 -78 226t-151 81q-94 0 -183 -70t-133 -191q-31 -86 -31 -176zM911 548l538 1q-8 160 -96 253t-247 94q-9 0 -23 -2q-74 -11 -120.5 -106t-51.5 -240z" />
<glyph unicode="&#x178;" horiz-adv-x="1445" d="M67 1363q0 10 10.5 16.5t22.5 6.5h300q11 0 17 -5.5t3 -12.5q-7 -18 -33 -18h-100l425 -614l436 614h-125q-11 0 -16.5 5.5t-2.5 12.5q7 18 32 18h300q21 0 21 -14q0 -9 -11 -15.5t-23 -6.5h-121l-466 -656v-676h129q11 0 17 -5.5t3 -12.5q-7 -18 -33 -18h-300 q-11 0 -16.5 5.5t-2.5 12.5q7 18 32 18h117v668l-460 664h-135q-20 0 -20 13zM560 1557q0 19 8.5 33.5t19.5 14.5t19.5 -14.5t8.5 -33.5t-8.5 -33.5t-19.5 -14.5t-19.5 14.5t-8.5 33.5zM820 1557q0 19 8.5 33.5t19.5 14.5t19.5 -14.5t8.5 -33.5t-8.5 -33.5t-19.5 -14.5 t-19.5 14.5t-8.5 33.5z" />
<glyph unicode="&#x2dc;" horiz-adv-x="2048" d="M223 1143q0 3 1 5q21 52 74 72q29 11 56 11q31 0 60 -15.5t49 -35t46.5 -40t49.5 -28.5q15 -5 28 -5q35 0 55 42q3 7 13.5 11t20.5 4q20 0 20 -11q0 -3 -2 -7q-14 -30 -48.5 -52t-75.5 -22q-23 0 -44 7q-34 11 -82.5 54t-74.5 54q-18 8 -34 8q-40 0 -59 -48 q-7 -17 -33 -17q-20 0 -20 13z" />
<glyph unicode="&#x2000;" horiz-adv-x="894" />
<glyph unicode="&#x2001;" horiz-adv-x="1789" />
<glyph unicode="&#x2002;" horiz-adv-x="894" />
<glyph unicode="&#x2003;" horiz-adv-x="1789" />
<glyph unicode="&#x2004;" horiz-adv-x="596" />
<glyph unicode="&#x2005;" horiz-adv-x="447" />
<glyph unicode="&#x2006;" horiz-adv-x="298" />
<glyph unicode="&#x2007;" horiz-adv-x="298" />
<glyph unicode="&#x2008;" horiz-adv-x="223" />
<glyph unicode="&#x2009;" horiz-adv-x="357" />
<glyph unicode="&#x200a;" horiz-adv-x="99" />
<glyph unicode="&#x2010;" horiz-adv-x="564" d="M80 526q0 3 1 5q7 18 33 18h350q20 0 20 -13q0 -3 -1 -5q-3 -7 -12.5 -12.5t-20.5 -5.5h-350q-20 0 -20 13z" />
<glyph unicode="&#x2011;" horiz-adv-x="564" d="M80 526q0 3 1 5q7 18 33 18h350q20 0 20 -13q0 -3 -1 -5q-3 -7 -12.5 -12.5t-20.5 -5.5h-350q-20 0 -20 13z" />
<glyph unicode="&#x2012;" horiz-adv-x="564" d="M80 526q0 3 1 5q7 18 33 18h350q20 0 20 -13q0 -3 -1 -5q-3 -7 -12.5 -12.5t-20.5 -5.5h-350q-20 0 -20 13z" />
<glyph unicode="&#x2013;" horiz-adv-x="924" d="M160 526q0 10 11 16.5t23 6.5h550q20 0 20 -13q0 -10 -11 -16.5t-23 -6.5h-550q-20 0 -20 13z" />
<glyph unicode="&#x2014;" horiz-adv-x="1134" d="M160 526q0 10 11 16.5t23 6.5h760q20 0 20 -13q0 -10 -11 -16.5t-23 -6.5h-760q-20 0 -20 13z" />
<glyph unicode="&#x2018;" horiz-adv-x="406" d="M98 1296v2v1q0 5 4 17q9 25 28.5 64t52 80t59.5 41q19 0 19 -28q0 -15 -5.5 -37.5t-13.5 -44t-15.5 -40.5t-12.5 -31l-6 -13q0 -16 -7 -37q-15 -46 -56 -46q-47 0 -47 72z" />
<glyph unicode="&#x2019;" horiz-adv-x="406" d="M98 1131q0 15 5.5 37.5t13 44t15.5 40.5t14 31l5 13q0 16 7 37q15 46 56 46q47 0 47 -72v-2v-1q0 -5 -4 -17q-9 -25 -28.5 -64t-52 -80t-59.5 -41q-19 0 -19 28z" />
<glyph unicode="&#x201a;" horiz-adv-x="406" d="M98 -150q0 15 5.5 37.5t13 44t15.5 40.5t14 32l5 12q0 16 7 37q15 46 56 46q47 0 47 -72v-2v-1q0 -5 -4 -17q-9 -25 -28.5 -64t-52 -80t-59.5 -41q-19 0 -19 28z" />
<glyph unicode="&#x201c;" horiz-adv-x="616" d="M98 1296v2v1q0 5 4 17q9 25 28.5 64t52 80t59.5 41q19 0 19 -28q0 -15 -5.5 -37.5t-13.5 -44t-15.5 -40.5t-12.5 -31l-6 -13q0 -16 -7 -37q-15 -46 -56 -46q-47 0 -47 72zM308 1296v2v1q0 5 4 17q9 25 28.5 64t52 80t59.5 41q19 0 19 -28q0 -15 -5.5 -37.5t-13.5 -44 t-15.5 -40.5t-12.5 -31l-6 -13q0 -16 -7 -37q-15 -46 -56 -46q-47 0 -47 72z" />
<glyph unicode="&#x201d;" horiz-adv-x="606" d="M98 1131q0 15 5.5 37.5t13 44t15.5 40.5t14 31l5 13q0 16 7 37q15 46 56 46q47 0 47 -72v-2v-1q0 -5 -4 -17q-9 -25 -28.5 -64t-52 -80t-59.5 -41q-19 0 -19 28zM298 1131q0 15 5.5 37.5t13 44t15.5 40.5t14 31l5 13q0 16 7 37q15 46 56 46q47 0 47 -72v-2v-1 q0 -5 -4 -17q-9 -25 -28.5 -64t-52 -80t-59.5 -41q-19 0 -19 28z" />
<glyph unicode="&#x201e;" horiz-adv-x="606" d="M98 -150q0 15 5.5 37.5t13 44t15.5 40.5t14 32l5 12q0 16 7 37q15 46 56 46q47 0 47 -72v-2v-1q0 -5 -4 -17q-9 -25 -28.5 -64t-52 -80t-59.5 -41q-19 0 -19 28zM318 -150q0 15 5.5 37.5t13 44t15.5 40.5t14 32l5 12q0 16 7 37q15 46 56 46q47 0 47 -72v-2v-1 q0 -5 -4 -17q-9 -25 -28.5 -64t-52 -80t-59.5 -41q-19 0 -19 28z" />
<glyph unicode="&#x2022;" horiz-adv-x="576" d="M162 509q0 61 41 104.5t99 43.5t99 -43.5t41 -104.5t-41 -104.5t-99 -43.5t-99 43.5t-41 104.5z" />
<glyph unicode="&#x2026;" horiz-adv-x="1218" d="M153 29q0 14 5 29q14 41 56 41q49 0 49 -61q0 -15 -5 -30q-14 -41 -57 -41q-48 0 -48 62zM559 29q0 14 5 29q14 41 56 41q49 0 49 -61q0 -15 -5 -30q-14 -41 -57 -41q-48 0 -48 62zM965 29q0 14 5 29q14 41 56 41q49 0 49 -61q0 -15 -5 -30q-14 -41 -57 -41q-48 0 -48 62 z" />
<glyph unicode="&#x202f;" horiz-adv-x="357" />
<glyph unicode="&#x2039;" horiz-adv-x="632" d="M162 521q0 6 4 11l216 228q11 11 29 11q5 0 9 -1q9 -3 11 -9.5t-5 -13.5l-206 -218l212 -207q4 -4 4 -8q0 -8 -12 -15t-24 -7q-10 0 -15 5l-220 216q-3 3 -3 8z" />
<glyph unicode="&#x203a;" horiz-adv-x="632" d="M187 305q0 6 6 12l209 205l-208 219q-4 4 -4 8q0 8 11.5 15t24.5 7q10 0 16 -6l216 -228q3 -3 3 -7q0 -6 -6 -12l-220 -216q-11 -11 -28 -11q-5 0 -10 2q-10 3 -10 12z" />
<glyph unicode="&#x205f;" horiz-adv-x="447" />
<glyph unicode="&#x20ac;" horiz-adv-x="1360" d="M51 606q0 9 11 15.5t23 6.5h106q0 8 -0.5 24.5t-0.5 24.5q0 39 4 115h-123q-20 0 -20 14q0 9 11 15.5t23 6.5h111q23 246 117 370q53 69 135 113t160 60t162 16q210 0 362 -118v56q0 9 12 15.5t24 6.5q18 0 18 -13v-300q0 -9 -12 -15.5t-24 -6.5q-18 0 -18 13v179 q-155 147 -375 147q-273 0 -397 -163q-88 -115 -110 -360h625q20 0 20 -13q0 -10 -11 -16.5t-23 -6.5h-614q-3 -54 -3 -107q0 -38 1 -57h475q20 0 20 -13q0 -10 -11 -16.5t-23 -6.5h-460q14 -287 123 -416q69 -82 178 -120t223 -38q226 0 373 128q10 9 28 9.5t19 -13.5 q0 -7 -7 -13q-169 -147 -426 -147q-124 0 -242.5 41.5t-193.5 130.5q-115 137 -129 438h-121q-20 0 -20 14z" />
<glyph unicode="&#x2122;" horiz-adv-x="2228" d="M150 1247v240q0 9 11.5 15.5t22.5 6.5h881q129 0 171 -88l293 -604l273 584q23 59 66.5 83.5t112.5 24.5h125q11 0 16.5 -5.5t2.5 -12.5t-12.5 -12.5t-20.5 -5.5h-91v-875h134q20 0 20 -13q0 -3 -1 -5q-7 -18 -33 -18h-300q-11 0 -16.5 5.5t-2.5 12.5q7 18 33 18h112v875 q-39 -1 -56 -14.5t-38 -59.5l-299 -643q-5 -11 -25 -15.5t-27 7.5l-318 655q-15 31 -37.5 47.5t-61.5 20.5v-873h134q11 0 16.5 -5.5t2.5 -12.5t-12.5 -12.5t-20.5 -5.5h-300q-11 0 -16.5 5.5t-2.5 12.5t12.5 12.5t20.5 5.5h112v875h-424v-875h144q11 0 16.5 -5.5t2.5 -12.5 t-12.5 -12.5t-20.5 -5.5h-300q-11 0 -16.5 5.5t-2.5 12.5t12.5 12.5t20.5 5.5h102v875h-349v-218q0 -8 -11.5 -14.5t-24.5 -6.5q-18 0 -18 13z" />
<glyph unicode="&#xe000;" horiz-adv-x="930" d="M0 930h930v-930h-930v930z" />
<glyph unicode="&#xfb01;" horiz-adv-x="1156" d="M89 909q0 10 10.5 16.5t22.5 6.5h102v197q0 53 18 101q24 66 78 111t131 45q83 0 149 -51.5t66 -112.5q0 -9 -12 -15.5t-24 -6.5q-18 0 -18 13q0 48 -57 92.5t-117 44.5q-66 0 -113 -62.5t-47 -149.5v-206h232q11 0 17 -5.5t3 -12.5q-7 -18 -33 -18h-219l-1 -878h110 q11 0 17 -5.5t3 -12.5q-7 -18 -33 -18h-260q-11 0 -16.5 5.5t-2.5 12.5q7 18 32 18h96l1 878h-115q-20 0 -20 13zM776 909q0 10 10.5 16.5t22.5 6.5h135q9 0 15 -4.5t6 -9.5l1 -900h110q21 0 21 -14q0 -9 -11 -15.5t-23 -6.5h-260q-11 0 -16.5 5.5t-2.5 12.5q7 18 32 18h96 l-1 878h-115q-20 0 -20 13zM924 1333q0 19 8.5 33.5t19.5 14.5t19.5 -14.5t8.5 -33.5t-8.5 -33.5t-19.5 -14.5t-19.5 14.5t-8.5 33.5z" />
<glyph unicode="&#xfb02;" horiz-adv-x="1121" d="M89 909q0 10 10.5 16.5t22.5 6.5h102v197q0 53 18 101q24 66 78 111t131 45q83 0 149 -51.5t66 -112.5q0 -9 -12 -15.5t-24 -6.5q-18 0 -18 13q0 48 -57 92.5t-117 44.5q-66 0 -113 -62.5t-47 -149.5v-206h232q11 0 17 -5.5t3 -12.5q-7 -18 -33 -18h-219l-1 -878h110 q11 0 17 -5.5t3 -12.5q-7 -18 -33 -18h-260q-11 0 -16.5 5.5t-2.5 12.5q7 18 32 18h96l1 878h-115q-20 0 -20 13zM745 1363q0 10 10.5 16.5t22.5 6.5h135q9 0 15 -4.5t6 -9.5l1 -1354h110q21 0 21 -14q0 -9 -11 -15.5t-23 -6.5h-260q-11 0 -16.5 5.5t-2.5 12.5q7 18 32 18 h96l-1 1332h-115q-20 0 -20 13z" />
<glyph unicode="&#xfb03;" horiz-adv-x="1842" d="M89 909q0 10 10.5 16.5t22.5 6.5h102v197q0 53 18 101q24 66 78 111t131 45q83 0 149 -51.5t66 -112.5q0 -9 -12 -15.5t-24 -6.5q-18 0 -18 13q0 48 -57 92.5t-117 44.5q-66 0 -113 -62.5t-47 -149.5v-206h232q11 0 17 -5.5t3 -12.5q-7 -18 -33 -18h-219l-1 -878h110 q11 0 17 -5.5t3 -12.5q-7 -18 -33 -18h-260q-11 0 -16.5 5.5t-2.5 12.5q7 18 32 18h96l1 878h-115q-20 0 -20 13zM775 909q0 10 10.5 16.5t22.5 6.5h102v197q0 53 18 101q24 66 78 111t131 45q83 0 149 -51.5t66 -112.5q0 -9 -12 -15.5t-24 -6.5q-18 0 -18 13q0 48 -57 92.5 t-117 44.5q-66 0 -113 -62.5t-47 -149.5v-206h232q11 0 17 -5.5t3 -12.5q-7 -18 -33 -18h-219l-1 -878h110q11 0 17 -5.5t3 -12.5q-7 -18 -33 -18h-260q-11 0 -16.5 5.5t-2.5 12.5q7 18 32 18h96l1 878h-115q-20 0 -20 13zM1462 909q0 10 10.5 16.5t22.5 6.5h135 q9 0 15 -4.5t6 -9.5l1 -900h110q21 0 21 -14q0 -9 -11 -15.5t-23 -6.5h-260q-11 0 -16.5 5.5t-2.5 12.5q7 18 32 18h96l-1 878h-115q-20 0 -20 13zM1610 1333q0 19 8.5 33.5t19.5 14.5t19.5 -14.5t8.5 -33.5t-8.5 -33.5t-19.5 -14.5t-19.5 14.5t-8.5 33.5z" />
<glyph unicode="&#xfb04;" horiz-adv-x="1807" d="M89 909q0 10 10.5 16.5t22.5 6.5h102v197q0 53 18 101q24 66 78 111t131 45q83 0 149 -51.5t66 -112.5q0 -9 -12 -15.5t-24 -6.5q-18 0 -18 13q0 48 -57 92.5t-117 44.5q-66 0 -113 -62.5t-47 -149.5v-206h232q11 0 17 -5.5t3 -12.5q-7 -18 -33 -18h-219l-1 -878h110 q11 0 17 -5.5t3 -12.5q-7 -18 -33 -18h-260q-11 0 -16.5 5.5t-2.5 12.5q7 18 32 18h96l1 878h-115q-20 0 -20 13zM775 909q0 10 10.5 16.5t22.5 6.5h102v197q0 53 18 101q24 66 78 111t131 45q83 0 149 -51.5t66 -112.5q0 -9 -12 -15.5t-24 -6.5q-18 0 -18 13q0 48 -57 92.5 t-117 44.5q-66 0 -113 -62.5t-47 -149.5v-206h232q11 0 17 -5.5t3 -12.5q-7 -18 -33 -18h-219l-1 -878h110q11 0 17 -5.5t3 -12.5q-7 -18 -33 -18h-260q-11 0 -16.5 5.5t-2.5 12.5q7 18 32 18h96l1 878h-115q-20 0 -20 13zM1431 1363q0 10 10.5 16.5t22.5 6.5h135 q9 0 15 -4.5t6 -9.5l1 -1354h110q21 0 21 -14q0 -9 -11 -15.5t-23 -6.5h-260q-11 0 -16.5 5.5t-2.5 12.5q7 18 32 18h96l-1 1332h-115q-20 0 -20 13z" />
</font>
</defs>
</svg>
